<?xml version="1.0" encoding="UTF-8"?>
<svg id="b" data-name="Layer_2" xmlns="http://www.w3.org/2000/svg" viewBox="0 0 1907.14 474.93">
  <defs>
    <style>
      .d {
        fill: #010101;
      }

      .d, .e {
        fill-rule: evenodd;
      }

      .e {
        fill: #b31b1b;
      }
    </style>
  </defs>
  <g id="c" data-name="Logos">
    <g>
      <path class="e" d="M223.89.24c-11.26.69-24.67,2.47-33.87,4.48-2.47.54-5.38,1.14-6.48,1.34-5.19.93-22.6,6.26-29.89,9.15-2.06.82-4.1,1.58-4.53,1.71-.44.12-2.39.95-4.35,1.84-1.95.89-3.65,1.61-3.77,1.61-.2,0-2.89,1.27-8.27,3.89-7.03,3.44-16.13,8.54-21.73,12.2-1.54,1.01-2.86,1.83-2.94,1.83s-1.06.65-2.18,1.44c-1.12.79-3.01,2.11-4.21,2.93-11.17,7.65-22.94,17.6-33.44,28.28-5.28,5.37-6.92,7.15-12.05,13.14-2.92,3.4-7.65,9.37-9.99,12.58-4.69,6.47-8.64,12.32-11.19,16.58-.86,1.44-1.95,3.23-2.43,3.98-3.01,4.79-10.14,18.69-12.83,25.02-2.85,6.7-6.01,14.74-6.75,17.18-.21.69-1,3.09-1.76,5.35-1.6,4.77-4.49,15.01-5.02,17.77-.2,1.04-.64,3.1-.98,4.58-.84,3.67-2.04,9.76-2.36,12.01-2.42,17.03-2.89,23.24-2.89,38.34,0,14,.29,18.65,2,31.74,1.12,8.59,1.46,10.57,3.21,18.58,1.42,6.49,1.84,8.2,3.03,12.36.62,2.16,1.39,4.87,1.7,6.04.82,3.04,3.17,9.88,5.13,14.94.93,2.4,1.77,4.63,1.87,4.97.1.34.74,1.85,1.42,3.36s1.61,3.65,2.06,4.74c1.99,4.85,9.7,19.74,12.44,24.02.57.89,1.64,2.63,2.37,3.86,2.78,4.66,9.24,14.05,13.2,19.21,3.54,4.6,6.38,8.04,11.83,14.31,3.53,4.07,13.28,13.86,17.93,18.01,7.68,6.85,15.26,12.93,21.98,17.65,5.08,3.56,7.76,5.4,7.89,5.4.08,0,1.4.82,2.94,1.83,7.2,4.7,19.48,11.36,27.95,15.16,5.65,2.53,10.03,4.42,10.25,4.42.13,0,1.86.65,3.84,1.44,7.76,3.11,23.61,7.94,31.12,9.5,1.99.41,6.02,1.25,8.97,1.86,2.94.61,6.03,1.18,6.85,1.27.82.09,3.51.43,5.98.77,12.42,1.68,21.34,2.2,34.57,2.03,11.1-.14,16.05-.47,25.58-1.7,3.22-.41,6.81-.86,7.98-.99,1.17-.13,4.87-.8,8.22-1.49,3.35-.69,7.43-1.53,9.08-1.87,6.77-1.4,23.12-6.42,30.49-9.37,1.98-.79,3.71-1.44,3.84-1.44.69,0,16.39-7.22,20.13-9.25,1.47-.8,2.74-1.45,2.83-1.45.45,0,11.57-6.49,15.23-8.88,1.54-1,2.85-1.83,2.91-1.83.12,0,2.72-1.77,7.94-5.4,1.34-.93,3.3-2.37,4.36-3.2,1.06-.83,2.31-1.78,2.79-2.11,2.5-1.75,7.26-5.7,13.7-11.35,4.87-4.28,15.72-15.06,18.71-18.59.88-1.03,2.55-2.98,3.72-4.32,3.16-3.63,8.32-10.08,10.7-13.38,5.06-7.01,9.1-13.03,11.62-17.28.62-1.05,1.52-2.53,2-3.28,1.64-2.6,6.39-11.37,8.15-15.06.46-.96,1.36-2.81,2.01-4.11,1.07-2.14,2.95-6.41,4.87-11.08,2.65-6.42,6.49-17.16,7.6-21.29.31-1.16,1.2-4.3,1.96-6.96.76-2.67,1.55-5.71,1.75-6.76s.64-3.13.98-4.61c.85-3.7,2.04-9.78,2.37-12.04,2.42-17.03,2.89-23.24,2.89-38.34s-.47-21.31-2.89-38.34c-.32-2.25-1.52-8.34-2.36-12.01-.34-1.47-.78-3.53-.98-4.58-.53-2.75-3.42-12.99-5.02-17.77-.76-2.26-1.55-4.67-1.76-5.35-.21-.68-1.14-3.2-2.07-5.6-.93-2.4-1.77-4.61-1.86-4.92-.09-.31-.92-2.27-1.85-4.36-.93-2.08-1.78-4.07-1.88-4.41-.65-2.07-9.46-19-11.91-22.9-.47-.75-1.57-2.55-2.43-3.98-2.61-4.36-6.22-9.69-11.19-16.57-2.64-3.65-8.31-10.74-11.11-13.9-1.08-1.22-2.61-2.99-3.41-3.94-2.54-3.02-13.09-13.58-17.48-17.49-7.69-6.86-15.26-12.93-21.98-17.65-5.08-3.56-7.76-5.4-7.89-5.4-.08,0-1.4-.82-2.94-1.83-5.73-3.74-15.35-9.14-22.23-12.46-4.64-2.24-7.24-3.45-7.85-3.65-.34-.11-2.1-.87-3.91-1.69-1.81-.82-3.55-1.57-3.86-1.66-.31-.09-2.53-.92-4.93-1.85-8.14-3.16-22.88-7.66-29.64-9.06-17.65-3.65-27.7-5.08-41.27-5.89-5.01-.3-21.31-.28-26.35.03ZM225.39,2.73c-15.16.78-31.82,3.3-45.82,6.95-7.85,2.04-9.24,2.45-14.82,4.28-13.32,4.38-28.65,10.99-39.22,16.9-1.51.84-3.19,1.77-3.74,2.05-.55.28-2.14,1.22-3.55,2.08-1.4.86-2.6,1.57-2.66,1.57-.16,0-6.88,4.33-9.61,6.19-19.96,13.59-37.57,29.85-52.15,48.17-5.98,7.51-13.18,17.74-17.1,24.31-2.58,4.33-3.72,6.27-3.72,6.35,0,.06-.35.7-.78,1.42-1.57,2.64-5.26,9.8-7.41,14.34-12.15,25.75-19.34,52.72-21.69,81.33-2.78,33.89,2.23,69.74,14.11,101.08,4.1,10.82,9.75,23.03,14.43,31.2.73,1.28,1.33,2.37,1.33,2.42s1.3,2.26,2.9,4.9c8.22,13.61,17.94,26.63,28.31,37.91,3.23,3.51,10.96,11.24,14.49,14.49,10.52,9.68,24.88,20.49,36.49,27.47.21.12,1.68,1.01,3.28,1.98,1.6.96,2.96,1.75,3.01,1.75s1.49.79,3.19,1.75c7.64,4.33,20.77,10.36,30.48,14.02,4.85,1.82,13.82,4.81,17.31,5.76,17.14,4.66,28.69,6.78,44.7,8.22,34.4,3.09,70.7-1.89,103.11-14.17,9.09-3.45,21.7-9.22,29.01-13.29,1.44-.8,3.28-1.82,4.09-2.28.81-.45,2.47-1.42,3.68-2.16,1.21-.73,2.25-1.34,2.3-1.34.18,0,7.05-4.47,10.74-6.99,23.98-16.37,45.01-37.42,61.54-61.6,2.23-3.26,5.51-8.29,6.58-10.08,2.41-4.05,3.04-5.12,3.73-6.37.45-.81,1.48-2.65,2.28-4.09.8-1.44,2.78-5.3,4.4-8.59,12.4-25.18,19.98-51.81,22.8-80.16.84-8.42,1-12.22,1-23.03,0-6.63-.13-12.73-.32-15.19-1.43-18.58-3.67-31.47-8.66-49.79-.96-3.51-3.94-12.49-5.76-17.3-3.73-9.89-9.68-22.81-14.02-30.47-.96-1.7-1.75-3.13-1.75-3.19s-.78-1.38-1.74-2.95c-.96-1.57-1.74-2.89-1.74-2.95,0-.16-4.26-6.75-6.41-9.91-13.14-19.38-29.79-37.36-47.97-51.83-4.67-3.72-9.42-7.23-13.97-10.34-3.77-2.57-10.56-6.99-10.75-6.99-.06,0-1.38-.78-2.95-1.74s-2.89-1.74-2.95-1.74-1.49-.79-3.19-1.75c-7.37-4.18-20.49-10.23-29.98-13.83-19.77-7.49-41.16-12.33-62.51-14.16-10.07-.86-22.68-1.1-32.38-.6ZM227.01,6.45c-27.96,1.31-54.18,7.29-79.94,18.21-5.68,2.41-15.57,7.18-19.92,9.61-1.44.8-3.26,1.82-4.04,2.25-7.05,3.92-17.23,10.65-24.82,16.38-18.53,14.02-35.45,31.33-48.75,49.88-4.26,5.94-10.21,15.2-13.08,20.36-.44.78-1.45,2.6-2.26,4.04-.8,1.44-2.79,5.3-4.4,8.59-11.66,23.72-19.19,49.23-22.05,74.69-2.17,19.37-2.17,34.66,0,54.02,2.85,25.46,10.38,50.97,22.05,74.69,1.62,3.29,3.6,7.15,4.4,8.59.81,1.44,1.82,3.26,2.26,4.04,2.87,5.16,8.82,14.42,13.08,20.36,9.83,13.71,21.78,26.93,34.65,38.34,4.45,3.94,6.59,5.71,12.97,10.74,2.77,2.18,8.71,6.37,13.42,9.47,4.31,2.84,12.13,7.67,12.41,7.67.06,0,.94.48,1.94,1.07,4.51,2.65,14.37,7.51,21.75,10.72,7.13,3.1,20,7.71,26.4,9.45,1.23.34,4.13,1.12,6.43,1.75,4.65,1.26,15.65,3.56,21.59,4.51,3.94.63,12.68,1.66,18.06,2.12,25.27,2.17,53.6-.44,78.57-7.24,14.74-4.01,28.32-9.17,42.21-16.05,3.43-1.69,7.5-3.81,9.06-4.71,1.56-.9,2.87-1.63,2.91-1.63.25,0,8.89-5.34,12.62-7.79,29.02-19.12,53.4-44.54,71.39-74.44,1.39-2.3,2.52-4.22,2.52-4.26s.73-1.35,1.63-2.91c4.36-7.58,10.33-20.52,14.06-30.47,8.5-22.66,13.25-45.99,14.44-70.83.87-18.27-.65-37.77-4.39-56.14-1.98-9.73-3.47-15.41-6.49-24.77-3.72-11.52-7.28-20.32-12.63-31.17-1.57-3.19-3.52-6.97-4.32-8.41-.81-1.44-1.82-3.26-2.26-4.04-2.87-5.16-8.83-14.42-13.08-20.36-13.33-18.59-30.22-35.87-48.75-49.88-7.64-5.77-17.77-12.46-24.82-16.38-.78-.44-2.6-1.45-4.04-2.26-10.21-5.71-26-12.52-38.73-16.7-5.32-1.75-6.76-2.16-14.94-4.28-20.86-5.41-45.02-7.87-67.12-6.83ZM229.62,11.81c-.96.05-3.7.21-6.1.36-42.93,2.67-83.9,17.43-118.67,42.76-3.2,2.33-9.99,7.56-10.96,8.44-.27.25-1.17,1.01-1.99,1.7-8.04,6.69-20.32,18.96-26.89,26.89-.68.82-1.3,1.55-1.38,1.62-.74.65-6.7,8.43-10.11,13.19-19.84,27.74-33.27,60.09-38.69,93.23-4.28,26.16-4.28,48.72,0,74.94,5.4,33.04,18.87,65.52,38.7,93.23,3.41,4.76,9.37,12.55,10.11,13.19.08.07.7.8,1.38,1.62,6.66,8.03,18.86,20.22,26.89,26.88.82.68,1.55,1.3,1.62,1.38.07.08,1.25,1.04,2.61,2.14,17.09,13.68,36.19,24.96,56.08,33.1,3.24,1.33,4.52,1.81,11.52,4.34,4.4,1.59,13.03,4.15,18.95,5.61,27.12,6.72,53.85,8.44,81.06,5.22,41.05-4.86,78.57-20.19,111.71-45.64,14.38-11.04,29.58-26.24,40.63-40.61,25.07-32.62,40.2-69.16,45.41-109.67,4.74-36.83.2-74.1-13.32-109.42-13.6-35.52-36.86-67.73-66.99-92.77-23.04-19.15-50.14-33.67-78.88-42.26-16.09-4.81-31.42-7.63-48.98-9-4.52-.35-19.95-.66-23.69-.47ZM229.89,18.48c-2.07.16-3.5.38-3.56.55-.05.15.25,5.03.66,10.84.82,11.56.79,12.83-.37,14.81-.88,1.5-2.04,2.13-4.19,2.26-2.99.18-4.51-1.01-5.52-4.29-.25-.8-.65-5.04-1.14-11.95-.41-5.89-.79-10.82-.83-10.96-.09-.28-8.22.17-8.52.47-.14.14.29,7.34,1.18,19.95.14,1.92.41,4.18.61,5.04,1.05,4.52,4.13,7.68,8.59,8.81,2.01.51,7.37.44,9.78-.11,3.75-.87,7.12-3.12,8.4-5.63,1.49-2.91,1.71-5.46,1.16-13.33-.22-3.15-.51-7.69-.66-10.08-.14-2.4-.33-4.89-.4-5.54-.17-1.37.41-1.28-5.18-.83ZM251.57,19.5c-.07.41-.47,3.44-.88,6.73-2.21,17.53-3.29,25.95-3.39,26.42-.11.5.08.55,4.01,1.08,2.27.31,4.19.49,4.27.41.14-.14.76-4.69,2.08-15.39.32-2.57.65-4.67.74-4.67.16,0,.61,1.2,3.98,10.58,2.69,7.49,3.93,10.87,4.02,10.94.04.03,2.23.33,4.85.67l4.77.61.13-.88c.07-.48.6-4.58,1.17-9.09.57-4.52,1.51-11.86,2.09-16.31.58-4.45,1.04-8.11,1.03-8.14-.05-.09-7.36-1.08-7.94-1.08s-.59.13-.88,2.68c-.7,6.3-2.13,17.13-2.29,17.32-.09.11-.54-.84-.99-2.12-.45-1.27-1.6-4.5-2.56-7.17s-2.31-6.42-2.99-8.34c-.69-1.92-1.32-3.57-1.41-3.67-.15-.17-6.3-1.05-8.65-1.24-.99-.08-1.05-.04-1.17.67ZM229.22,20.8c-.61.09-.64.17-.54,1.27.62,7.07,1.21,18.61,1.03,20.09-.57,4.76-3.62,7.34-8.29,7.04-3.46-.23-5.58-2.08-6.7-5.86-.25-.83-.62-4.69-1.03-10.58-.35-5.1-.7-9.62-.76-10.04l-.12-.77-1.93.12c-1.06.06-2,.19-2.09.27-.21.2,1.17,19.83,1.53,21.82.62,3.42,2.64,6.06,5.42,7.1,4.27,1.6,11.25.97,14.67-1.31,1.57-1.05,2.96-3.12,3.48-5.16.47-1.87.45-2.84-.43-15.75l-.57-8.4-1.51.04c-.83.02-1.8.08-2.16.14ZM253.55,21.72c-.23,1.26-3.65,28.46-3.64,28.94,0,.47.19.56,1.44.71.79.09,1.63.22,1.87.28.24.07.44.09.45.04,0-.04.72-5.43,1.58-11.96.86-6.54,1.63-11.96,1.72-12.05.09-.09.53-.06.98.07.91.26.65-.33,4.42,10.17.98,2.74,2.52,7,3.42,9.46.9,2.46,1.74,4.84,1.86,5.28.26.93.28.94,3.65,1.34,2.03.25,2.61.25,2.76,0,.1-.17.33-1.62.51-3.22.18-1.6,1.01-8.21,1.85-14.68,1.75-13.44,1.87-11.95-.97-12.07l-1.48-.06-1.19,8.96c-.65,4.93-1.33,10.25-1.51,11.83l-.32,2.86h-.99c-1.17,0-.85.65-3.9-7.97-3.55-10.02-5.47-15.4-5.91-16.56l-.43-1.12-3.05-.39c-3.04-.39-3.05-.39-3.14.12ZM297.01,27.15c-.12.33-.36,1.09-.54,1.7-.17.61-1.12,3.85-2.11,7.21-.99,3.35-2.61,8.9-3.61,12.32-1,3.42-2.18,7.43-2.63,8.92-.57,1.89-.73,2.72-.52,2.79,1.41.5,8.04,2.29,8.17,2.21.09-.06.24-.41.33-.79.15-.66,1.68-5.89,5.36-18.36,3.58-12.16,4.06-13.85,3.93-13.98-.08-.08-1.69-.61-3.58-1.19-1.89-.58-3.69-1.14-4-1.24-.45-.15-.6-.07-.78.41ZM297.4,33.76c-.66,2.29-2.02,6.91-3.01,10.27-3.46,11.69-4.17,14.22-4.05,14.35.07.07.95.39,1.96.71,1.32.42,1.87.5,1.98.29.08-.16.58-1.75,1.09-3.53,1.11-3.82,3.7-12.62,5.83-19.82.83-2.82,1.52-5.2,1.52-5.28,0-.18-3.13-1.17-3.7-1.16-.31,0-.69.97-1.62,4.17ZM154.16,34.41c-3.25,1.28-3.97,1.65-3.9,2.02.05.24.97,2.75,2.06,5.58,3.3,8.53,7.79,20.25,9.34,24.38.38,1,.77,1.87.87,1.94.18.11,1.79-.49,13.79-5.13,2.74-1.06,5.23-2,5.54-2.1.31-.09.56-.25.56-.36,0-.19-2.46-6.56-2.58-6.67-.08-.08-2.2.7-7.22,2.65-2.17.84-4.11,1.5-4.31,1.46-.35-.07-1.19-2.12-5.5-13.39-3.06-8.01-4.59-11.95-4.63-11.94-.02,0-1.83.72-4.02,1.58ZM318.69,35.26c-.15,1.19-.51,4.29-.79,6.9-.29,2.6-1.08,9.6-1.76,15.56-.68,5.96-1.26,11.09-1.29,11.4-.05.51.41.79,4.35,2.65l4.41,2.08.95-1.07c.52-.59,4.14-4.36,8.05-8.37,14.61-15.04,16.19-16.68,16.19-16.87s-7.26-3.76-7.67-3.76c-.12,0-1.67,1.53-3.43,3.4-1.77,1.87-3.39,3.58-3.6,3.8-.44.45-9.49,10.04-9.64,10.23-.15.18.06-1.57,1.58-13.18.74-5.68,1.35-10.45,1.35-10.6s-1.04-.76-2.3-1.36c-1.27-.59-3.16-1.5-4.2-2.02l-1.9-.95-.27,2.17ZM155.03,36.47c-.89.33-1.7.69-1.8.79-.1.1.47,1.92,1.28,4.03.81,2.12,1.83,4.8,2.27,5.96.74,1.96,1.39,3.64,5.45,14.18.82,2.12,1.59,3.89,1.73,3.93.13.04,2.75-.88,5.81-2.06,8.19-3.15,9.54-3.68,9.65-3.77.08-.07-.67-2.31-.85-2.53-.04-.04-1,.26-2.14.67-1.84.66-3.46,1.29-8.35,3.23l-1.29.51-1.16-3.04c-.64-1.67-2-5.22-3.02-7.89-1.02-2.67-2.59-6.76-3.48-9.09-.89-2.33-1.74-4.54-1.88-4.92-.14-.38-.33-.67-.42-.66-.09.02-.89.3-1.78.64ZM320.78,37.38c-.24,1.46-3.35,28.66-3.41,29.85-.03.65,0,1.21.05,1.25.06.04,1.35.64,2.86,1.33l2.75,1.26,4.47-4.62c2.46-2.54,7.39-7.63,10.95-11.3,3.57-3.67,6.52-6.78,6.57-6.91.07-.2-2.95-1.72-3.43-1.72-.1,0-1.74,1.65-3.63,3.67-1.9,2.02-5.36,5.69-7.7,8.15-2.34,2.46-4.91,5.18-5.72,6.03l-1.47,1.55-.71-.42c-.43-.25-.71-.63-.71-.95,0-.29.66-5.62,1.47-11.83,1.93-14.78,1.85-14.04,1.46-14.34-.18-.14-1.08-.6-2-1.02l-1.67-.77-.13.79ZM121.84,50.93c-2.02,1.19-3.67,2.27-3.67,2.42s.84,1.65,1.87,3.35c1.03,1.69,1.87,3.12,1.87,3.17s.6,1.07,1.33,2.27c.73,1.2,3.16,5.26,5.4,9.02,5.1,8.6,6.97,11.67,7.18,11.8.09.06,1.68-.81,3.53-1.93,1.85-1.12,5.91-3.54,9.03-5.39,3.11-1.85,5.66-3.46,5.66-3.59,0-.18-3.32-5.76-3.62-6.09-.04-.05-2.45,1.32-5.34,3.05-2.89,1.73-5.34,3.14-5.43,3.14s-1.79-2.72-3.77-6.04c-4.71-7.93-10.27-17.23-10.32-17.29-.02-.03-1.7.92-3.71,2.11ZM122.84,53c-.92.55-1.68,1.05-1.68,1.1s1.7,2.93,3.77,6.4c2.07,3.47,3.97,6.64,4.21,7.05,3.39,5.81,7.28,12.22,7.45,12.27.12.04,1.77-.85,3.67-1.99,1.89-1.13,3.73-2.21,4.07-2.4.51-.27,2.9-1.71,6.17-3.71l.57-.35-.67-1.17c-.37-.65-.7-1.21-.73-1.25-.03-.04-1.25.66-2.7,1.56-1.46.9-2.69,1.64-2.74,1.64s-1.29.74-2.76,1.63c-1.47.9-2.7,1.6-2.72,1.56-.11-.15-4.83-8.08-10.84-18.19-1.69-2.84-3.14-5.17-3.22-5.16-.08,0-.91.46-1.83,1.01ZM358.5,56.92c-.87,1.19-2.16,2.95-2.87,3.91-.71.96-2.84,3.87-4.74,6.47-1.9,2.6-4.07,5.58-4.83,6.62-.76,1.04-2.26,3.1-3.32,4.57-1.07,1.47-2.22,3.05-2.56,3.49l-.62.81,1.8,1.33c.99.73,2.27,1.67,2.85,2.08.58.41,2.81,2.04,4.96,3.61,2.15,1.57,4.79,3.5,5.86,4.27l1.95,1.41,1.58-2.16c2.55-3.47,2.77-3.82,2.52-3.99-.13-.09-2.44-1.77-5.14-3.74l-4.9-3.58,1.01-1.4c.56-.77,1.42-1.99,1.92-2.71.5-.72,1.01-1.31,1.12-1.31.12,0,.96.55,1.87,1.22,5.08,3.76,7.17,5.24,7.41,5.24.28,0,4.48-5.67,4.3-5.82-.05-.04-2.06-1.51-4.45-3.26-2.4-1.75-4.44-3.26-4.55-3.35-.19-.17,2.93-4.74,3.24-4.74.09,0,.33.16.55.35.69.62,9.35,6.86,9.53,6.86.19,0,.56-.45,2.86-3.56.89-1.21,1.59-2.23,1.54-2.26-1.18-.88-7.37-5.35-7.76-5.61-.3-.2-1.16-.83-1.92-1.4-1.98-1.49-7.05-5.21-7.37-5.4-.15-.09-.95.77-1.85,2.01ZM358.95,60.14c-.88,1.2-2.87,3.91-4.42,6.04-1.55,2.12-3.31,4.53-3.91,5.35-.6.82-1.91,2.61-2.91,3.98-1,1.37-2.51,3.43-3.35,4.58-.84,1.15-1.53,2.16-1.53,2.24,0,.08.65.59,1.43,1.13.78.54,3.1,2.22,5.16,3.74,2.06,1.52,4.49,3.29,5.41,3.94l1.67,1.19.76-1.05c.42-.58.73-1.13.69-1.24-.07-.19-3.49-2.75-7.61-5.7-1.25-.89-2.27-1.71-2.28-1.83-.02-.23,6.12-8.79,6.45-9,.11-.07.81.31,1.54.85.73.54,2.79,2.05,4.57,3.36l3.24,2.38.81-.94c.44-.51.81-1.05.81-1.2,0-.14-.75-.81-1.68-1.48-.92-.67-2.75-2.01-4.05-2.97-1.3-.96-2.63-1.92-2.94-2.13l-.57-.37,2.21-2.99c1.21-1.64,2.58-3.52,3.05-4.17l.84-1.18.77.59c.42.32,1.5,1.1,2.39,1.74.89.63,2.85,2.05,4.36,3.15l2.73,2,.45-.56c.97-1.22,1.24-1.72,1.03-1.9-.12-.11-1.29-.96-2.59-1.9-2.5-1.8-4.31-3.13-8.27-6.05-1.33-.98-2.47-1.79-2.52-1.79s-.83.98-1.71,2.18ZM225.64,59.47c-6.09.45-16.34,1.76-21.46,2.74-4.3.82-13.8,3.17-18.14,4.48-24.66,7.48-46.39,19.58-66.37,36.94-3.69,3.2-12.87,12.39-16.08,16.07-12.17,14-21.58,28.61-29.01,45.06-6.17,13.66-11.15,30.44-13.3,44.85-1.7,11.39-2,15.61-2,27.84s.3,16.45,2,27.84c1.75,11.72,5.49,25.48,10.21,37.51,2.55,6.51,6.71,15.22,10.4,21.78,19.96,35.48,51.9,63.5,89.46,78.48,12.24,4.88,26.19,8.72,38.27,10.52,11.39,1.7,15.62,2,27.85,2s16.52-.31,27.77-1.99c14.62-2.19,31.81-7.31,45.33-13.51,4.49-2.06,11.39-5.53,13.69-6.89,1.06-.62,1.97-1.14,2.02-1.14.24,0,7.96-4.83,10.94-6.84,9.57-6.47,17.7-13.21,26.28-21.78,8.57-8.57,15.32-16.7,21.79-26.27,2.01-2.97,6.84-10.69,6.84-10.94,0-.06.51-.97,1.14-2.02,1.36-2.3,4.83-9.19,6.89-13.68,6.2-13.52,11.33-30.69,13.51-45.31,1.68-11.25,1.99-15.55,1.99-27.76s-.31-16.45-2-27.84c-1.57-10.5-5.35-24.88-9.08-34.52-.58-1.51-1.33-3.45-1.66-4.32-.96-2.55-3.95-9.05-6.25-13.61-4.88-9.67-9.96-17.84-16.58-26.63-20.04-26.63-46.99-47.15-77.75-59.19-15.59-6.1-30.86-9.7-48.94-11.55-4.54-.46-23.04-.68-27.77-.33ZM227.75,61.6c-.48.05-2.44.22-4.36.36-11.39.87-22.63,2.96-36.11,6.69-3.05.85-11.54,3.87-16.44,5.85-5.2,2.11-16.06,7.39-20.55,10-21.65,12.6-39.51,28.43-54.04,47.9-3.27,4.39-8.24,11.76-9.9,14.69-.27.48-1.3,2.27-2.29,3.98-2.58,4.46-7.14,13.81-9.35,19.17-6.97,16.88-11.04,33.68-12.87,53.15-.44,4.72-.44,23.42,0,28.13,1.83,19.47,5.9,36.27,12.87,53.15,2.22,5.36,6.78,14.71,9.35,19.17.99,1.71,2.02,3.5,2.29,3.98.74,1.3,4.28,6.77,6.13,9.46,11.87,17.26,27.76,33.15,45.11,45.09,2.67,1.84,8.14,5.38,9.46,6.13.48.27,2.27,1.3,3.98,2.29,4.43,2.56,13.78,7.12,19.18,9.35,10.44,4.32,22,7.85,32.13,9.81,7.79,1.51,12.35,2.19,19.42,2.91,5.25.53,20.32.75,26.06.38,23.92-1.55,46.23-7.47,67.21-17.83,3.15-1.56,7.13-3.64,8.84-4.62,1.71-.99,3.45-1.99,3.86-2.22,1.25-.71,7.85-4.98,9.96-6.44,17.15-11.9,33.08-27.87,44.73-44.85,1.73-2.52,5.49-8.34,6.2-9.58.23-.41,1.23-2.15,2.22-3.86,2.68-4.65,7.19-13.92,9.47-19.47,6.99-17.04,10.95-33.48,12.77-53.11.43-4.69.43-22.95,0-27.63-1.81-19.52-5.75-35.95-12.67-52.9-2.16-5.29-6.94-15.11-9.57-19.67-.99-1.71-1.99-3.45-2.22-3.86-.23-.41-1.47-2.37-2.74-4.36-14.07-21.9-31.89-39.69-54.04-53.95-1.71-1.1-3.5-2.23-3.98-2.5-.48-.27-2.27-1.3-3.98-2.29-4.46-2.58-13.81-7.13-19.18-9.35-16.39-6.77-32.65-10.78-51.55-12.72-3.61-.37-22.97-.71-25.4-.45ZM103.58,63.51c-1.81,1.56-13.66,11.6-14.32,12.14-.54.43-.63.3,4.02,5.76,1.45,1.7,6.08,7.15,10.29,12.11l7.66,9.03.58-.44c.32-.24,1.97-1.62,3.67-3.06,1.7-1.44,5.13-4.34,7.62-6.44,2.49-2.1,4.53-3.88,4.53-3.95,0-.1-3.46-4.27-4.37-5.27-.26-.29-.68-.04-2.51,1.49-1.21,1.01-2.26,1.89-2.33,1.96-.7.73-4.99,4.23-5.18,4.23-.25,0-4.28-4.72-4.28-5.01,0-.18,1.95-1.9,5.73-5.07,1.44-1.2,2.61-2.33,2.61-2.5s-.78-1.24-1.74-2.37c-.96-1.13-1.97-2.32-2.24-2.65l-.5-.59-3.24,2.77c-1.78,1.52-3.76,3.21-4.4,3.75l-1.16.98-1.78-2.02c-.98-1.11-1.75-2.15-1.71-2.32.08-.31,1.8-1.83,6.6-5.85l2.79-2.33-1.48-1.77c-.81-.97-1.9-2.25-2.42-2.83l-.94-1.06-1.51,1.31ZM103.71,66.34c-.91.82-9.58,8.18-11.28,9.57-.53.43-.98-.17,6.44,8.57.96,1.13,4.15,4.92,7.1,8.41,2.94,3.5,5.49,6.32,5.66,6.27.36-.12,12.77-10.55,12.77-10.74,0-.25-1.54-2.07-1.75-2.07-.12,0-.36.14-.54.31-1.61,1.51-8.98,7.66-9.19,7.66-.09,0-.86-.84-1.71-1.86-.85-1.03-1.68-2.01-1.85-2.18-.17-.17-1.08-1.26-2.03-2.4l-1.72-2.09.99-.87c.54-.48,2.53-2.15,4.41-3.72l3.42-2.86-.77-.97c-.42-.53-.86-1.03-.98-1.1-.12-.07-2.08,1.47-4.36,3.42-2.28,1.95-4.3,3.59-4.48,3.63-.25.06-6.52-6.97-6.69-7.5-.02-.07,1.59-1.49,3.57-3.17,1.99-1.68,4.16-3.51,4.82-4.07l1.21-1.03-.98-1.1-.98-1.1-1.1,1ZM228.38,65.95c-17.54.99-36.89,5.08-52.05,11.01-8.24,3.22-17.54,7.66-24.48,11.67-36.63,21.18-64.12,54.89-77.51,95.05-1.65,4.94-3.93,13.31-4.96,18.17-1.34,6.35-2.73,16.17-3.3,23.4-.4,5.01-.39,19.49,0,24.27.94,11.39,2.74,22.26,5.15,31.12.45,1.64.9,3.38,1,3.86.29,1.38,3.71,11.57,4.8,14.31,2.51,6.33,3.52,8.62,6.28,14.19,1.62,3.29,3.7,7.26,4.62,8.84.92,1.57,1.95,3.37,2.3,3.98,1.35,2.38,6.98,10.74,9.48,14.06,10.25,13.65,21.81,25.2,35.28,35.26,4.39,3.28,10.96,7.7,14.32,9.63.48.28,1.88,1.09,3.11,1.81,3.07,1.79,11.54,6.09,15.32,7.77,15.01,6.68,29.77,10.87,46.7,13.24,23.47,3.29,48.59,1.37,71.85-5.51,12.21-3.61,26.57-9.79,36.69-15.8,1.35-.8,2.5-1.46,2.56-1.46s1.53-.91,3.28-2.03c11.76-7.52,20.04-14.18,29.96-24.1,9.92-9.92,16.58-18.19,24.1-29.95,1.12-1.75,2.03-3.22,2.03-3.28s.65-1.2,1.45-2.55c5.17-8.72,10.35-20.23,14.03-31.17,6.52-19.39,9.63-41.07,8.72-60.85-1.06-22.95-5.74-43.13-14.67-63.17-1.68-3.78-5.98-12.24-7.77-15.31-.72-1.23-1.53-2.63-1.81-3.11-1.93-3.36-6.35-9.93-9.63-14.32-10.06-13.47-21.62-25.03-35.27-35.27-3.37-2.53-11.78-8.2-14.07-9.48-.62-.35-2.37-1.36-3.9-2.26-3.62-2.12-14.04-7.26-18.02-8.89-14.79-6.07-28.25-9.71-44.08-11.93-9.19-1.29-21.82-1.78-31.5-1.24ZM231.86,71.43c-10.32.3-19.04,1.36-29.49,3.59-7.44,1.59-15.87,4.04-22.06,6.4-1.78.68-3.52,1.33-3.86,1.44-2.01.66-8.29,3.5-13.49,6.11-21.95,11-40.62,26.29-56.51,46.3-12.07,15.2-22.36,34.99-28.09,54.07-1.95,6.49-2.5,8.71-3.87,15.51-2.46,12.29-3.01,18.22-3.01,32.61,0,8.45.1,11.84.44,15.42,1.66,17.29,6,34.33,12.68,49.81,6.43,14.88,15.02,28.96,24.68,40.46.81.96,1.7,2.02,1.98,2.37,3.82,4.65,13.32,14.14,18.12,18.11.34.28,1.41,1.18,2.37,1.98,19.9,16.76,45.82,29.2,71.97,34.56,10.39,2.13,18.19,3.03,28.02,3.26l5.6.13-1.37-.59c-3.34-1.45-14.02-6.99-18.68-9.69-17.12-9.92-29.97-18.95-42.96-30.18-6.47-5.6-15.42-14.64-20.94-21.17-2.78-3.29-9.69-12.5-10.09-13.45-.06-.13-.73-1.2-1.49-2.36-5.38-8.19-10.45-19.05-13.27-28.38-2.4-7.93-3.59-14.59-4.14-23.1-.14-2.19-.24-34.73-.24-81.03v-77.36s113.19,0,113.19,0h113.2l-.08,81.6-.08,81.6-.54,3.98c-.81,5.95-1.51,9.21-3.2,14.94-2.22,7.52-5.66,15.6-9.36,22.03-.83,1.44-1.72,3.01-1.99,3.48-.74,1.32-4.05,6.33-5.75,8.71-12.17,16.97-29.99,33.67-51.34,48.1-5.7,3.85-13.95,9.04-17.85,11.22-.59.33-2.09,1.17-3.32,1.87-4.32,2.43-7.02,3.84-12.2,6.36-2.88,1.4-5.62,2.74-6.1,2.98-.85.42-.74.43,4.48.32,23.14-.48,46.86-6.49,68.64-17.41,2.31-1.16,5.19-2.68,6.4-3.38,1.21-.7,2.25-1.27,2.31-1.27.43,0,11.07-6.93,14.4-9.37,14.54-10.68,26.47-22.62,37.16-37.18,2.46-3.36,9.31-13.87,9.31-14.29,0-.06.57-1.1,1.27-2.31,1.7-2.94,5.14-9.81,6.99-14,7.06-15.9,11.63-33.55,13.32-51.44.64-6.73.64-23.89,0-30.62-2.42-25.56-10.63-50.12-24.02-71.8-3.93-6.36-9.01-13.44-13.33-18.57-.81-.96-1.7-2.02-1.98-2.37-4.49-5.45-13.55-14.38-20.11-19.8-12.17-10.07-24.93-17.94-39.47-24.37-19.05-8.42-40.09-13.24-60.02-13.73-2.74-.07-5.37-.15-5.85-.18-.48-.03-3.34.01-6.35.1ZM384.89,84.29c-3.06,2.84-8.7,8.08-12.53,11.64-3.84,3.56-7,6.58-7.04,6.72-.04.14,1.25,1.63,2.85,3.33l2.92,3.08,3.98-3.67c2.19-2.02,4.4-4.08,4.93-4.57l.95-.9.88.96c1.35,1.47,1.19,2.19-2.04,8.75-1.48,3.01-2.73,5.54-2.77,5.63-.14.26,6.46,7.22,6.66,7.02.1-.11.58-1.09,1.05-2.19.47-1.1,1.89-4.18,3.14-6.85,1.26-2.67,2.46-5.5,2.68-6.28.38-1.36.43-1.42,1.04-1.24.36.1,1.65.18,2.89.17,1.97,0,2.41-.09,3.59-.71,2.94-1.53,5.02-4.59,5.21-7.62.17-2.85-.9-5.38-3.69-8.73-1.7-2.04-8.8-9.68-9-9.69-.08,0-2.65,2.32-5.71,5.16ZM387.13,85.3c-2.6,2.43-6.26,5.82-9.43,8.75-6.39,5.91-9.24,8.59-9.24,8.71,0,.08.6.81,1.34,1.63l1.33,1.48,1.12-.98c.61-.54,2.62-2.38,4.45-4.1,1.83-1.71,3.59-3.33,3.9-3.59l.57-.48,1.3,1.46c2.32,2.59,2.42,2.79,2.42,4.55,0,1.64-.43,2.66-4.52,10.82l-.71,1.43,1.52,1.69c.84.93,1.59,1.71,1.68,1.74.09.03.58-.87,1.08-1.99.51-1.12,1.73-3.76,2.71-5.86,2.02-4.32,2.31-5.59,1.51-6.71l-.52-.73.73-.7.73-.7,1.32.89c2.38,1.61,4.38,1.75,6.77.47,1.38-.74,3.21-2.83,3.65-4.17.16-.49.25-1.53.19-2.3-.2-2.56-1.78-5.02-6.53-10.12-1.28-1.37-2.63-2.86-3-3.3-.37-.45-.81-.81-.97-.8-.16,0-1.69,1.32-3.41,2.93ZM387.33,90.88c-2.14,1.95-3.9,3.68-3.91,3.83-.04.53,4.31,4.72,5.48,5.27,2.42,1.15,5.25.52,6.71-1.49,1.98-2.73,1.41-4.99-2.29-9.07-.98-1.08-1.86-2-1.94-2.04-.09-.04-1.91,1.53-4.05,3.49ZM73.61,91.76c-1.39,1.75-2.53,3.26-2.53,3.37,0,.11,3.54,3.02,7.87,6.47,4.33,3.45,7.77,6.3,7.64,6.34-.25.08-2.2-.3-14.38-2.79-6.38-1.31-8.02-1.57-8.22-1.31-.14.18-1.42,1.77-2.84,3.55-1.43,1.77-2.69,3.36-2.82,3.52-.16.2,2.21,2.23,7.82,6.71,4.43,3.53,10.48,8.35,13.45,10.72,2.97,2.37,5.51,4.31,5.64,4.31.27,0,5.28-6.13,5.25-6.42-.01-.1-1.33-1.21-2.93-2.46-6.81-5.34-13.02-10.35-12.94-10.43.05-.05,1.65.23,3.57.62,12.74,2.59,16.35,3.33,17.61,3.62l1.43.33,2.87-3.58c1.58-1.97,2.93-3.74,3.01-3.93.09-.23-2.65-2.56-8.04-6.85-16.61-13.23-18.81-14.97-18.88-14.97-.04,0-1.21,1.43-2.6,3.17ZM388.67,92.77l-2.34,2.18,1.46,1.34c1.68,1.53,3.2,2.31,4.09,2.08,1.73-.43,2.9-2.1,2.48-3.56-.31-1.07-2.73-4.25-3.22-4.23-.08,0-1.19.99-2.47,2.19ZM75.25,93.3l-1.16,1.48,1.68,1.37c.93.75,5.16,4.13,9.4,7.51,4.25,3.38,7.74,6.21,7.77,6.3.03.09-.2.46-.5.83-.66.79.17.9-10.89-1.4-4.18-.87-9.34-1.93-11.47-2.36-2.13-.43-4.1-.84-4.38-.92-.4-.11-.9.35-2.47,2.28l-1.96,2.41.61.5c.34.27,2.41,1.93,4.6,3.68,18.21,14.53,18.39,14.67,18.73,14.4.18-.15.74-.84,1.25-1.52l.92-1.25-.75-.65c-.41-.36-4.7-3.78-9.52-7.61l-8.77-6.96.71-.71.71-.71,9.33,1.89c5.13,1.04,11.11,2.24,13.29,2.66l3.97.78.78-.9c.43-.5,1.3-1.57,1.94-2.38l1.16-1.48-8.28-6.59c-14.21-11.32-15.25-12.13-15.4-12.13-.08,0-.67.66-1.31,1.48ZM412.79,114.51c-3.18.52-6.4,2.85-7.76,5.62-1.08,2.2-1.22,4.7-.48,9.01.71,4.19.69,5.27-.12,6.24-.94,1.12-2.36,1.08-3.91-.11-1.91-1.46-3.64-5.74-3.65-9.04,0-1-.04-1.06-.57-.9-.52.16-6.92,3.29-7.13,3.49-.15.14,1.43,4.53,2.27,6.33,2.53,5.37,6.96,9.34,11.02,9.84,3.76.47,8.76-2.26,10.55-5.78,1.06-2.08,1.1-5.03.14-10.87-.62-3.76-.19-4.84,1.99-5.09.85-.1,1.31,0,1.97.4,1.58.98,3.13,4.02,3.65,7.19.17.99.34,1.8.4,1.8.49,0,6.83-3.29,6.83-3.54,0-1.67-1.79-5.9-3.68-8.7-3.1-4.59-7.08-6.63-11.51-5.9ZM412.98,116.73c-2.56.63-5.14,2.59-6.08,4.6-.74,1.59-.77,3.9-.09,7.84.86,4.96.54,6.9-1.37,8.36-1.27.97-3.38,1.14-4.91.4-2.42-1.17-4.36-3.93-5.31-7.57-.24-.92-.48-1.68-.52-1.68s-.71.28-1.48.62c-1.23.54-1.38.68-1.23,1.18.85,3,3.27,7.24,5.27,9.22.78.77,2.1,1.77,2.93,2.21,1.3.7,1.77.81,3.28.81,1.49,0,2.02-.12,3.4-.8,3.78-1.86,5.26-4.74,4.67-9.07-.14-1.06-.43-2.78-.63-3.82-.86-4.49-.14-6.55,2.7-7.77,1.89-.81,4.92.06,6.24,1.79.92,1.2,2.13,3.6,2.55,5.04.42,1.44.44,1.44,2.33.47l.73-.38-.46-1.31c-.8-2.27-1.28-3.25-2.41-4.97-2.6-3.93-6.4-5.97-9.62-5.17ZM129.7,198.69c.09,83.34,0,77.66,1.33,85.58,2.68,16.04,9.96,32.33,21.13,47.27,8.25,11.03,20.97,23.91,33.26,33.66,14.73,11.7,31.25,22.16,47.77,30.25l4.31,2.11,5.53-2.77c5.65-2.83,10.13-5.27,14.98-8.18,1.5-.9,2.85-1.68,2.99-1.74.75-.3,12.31-7.79,15.82-10.24,6.97-4.88,15.55-11.51,20.17-15.57,16.7-14.68,28.1-28.26,36.16-43.05,6.25-11.46,9.5-21.46,11.45-35.23.23-1.6.32-21.08.38-80.6l.08-78.48h-215.45l.08,76.99ZM133.43,200.93c.07,68.62.11,75.24.5,77.84,1.75,11.91,4.42,20.72,9.39,30.95,3.69,7.6,8.41,15.06,14.2,22.47,7.49,9.58,17.08,19.24,28.18,28.37,13,10.7,31.45,22.55,47.1,30.25l4.67,2.3,4.3-2.13c3.78-1.87,6.01-3.06,12.02-6.4.82-.46,3.17-1.85,5.23-3.11,9.85-6,15.45-9.77,23.28-15.66,15.94-12,29.81-25.82,39.24-39.1,9.27-13.05,15.09-25.92,17.79-39.34,1.75-8.7,1.6-1.23,1.69-85.46l.08-75.99h-207.72l.08,75ZM203.53,128.36l-67.93.06.06,42.63.06,42.63h202.97v-85.39h-33.62c-18.49,0-64.19.03-101.55.06ZM51.55,129.15c-2.21.38-4.33,1.96-6.25,4.65-.97,1.36-7.31,13.35-7.32,13.84,0,.09,1.93,1.14,4.29,2.33,2.36,1.19,9.24,4.67,15.29,7.73,6.05,3.06,11.09,5.57,11.21,5.57.3,0,4.08-7.56,3.87-7.75-.09-.09-2.77-1.47-5.96-3.06-3.18-1.59-5.79-2.97-5.79-3.05s.28-.64.63-1.23c1.01-1.72,1.57-1.76,11.13-.72,1.88.2,3.59.37,3.8.37.25,0,1.14-1.52,2.52-4.26,1.17-2.34,2.1-4.29,2.06-4.32-.3-.23-16.24-1.29-17.18-1.15l-1.16.18-.16-1.26c-.24-1.85-1.17-3.82-2.41-5.09-2.03-2.09-5.71-3.29-8.56-2.79ZM51.77,131.4c-1.75.42-3.58,2.04-5.27,4.68-1.07,1.67-5.63,10.51-5.49,10.64.08.08,6.49,3.35,20.22,10.31,3.54,1.8,6.51,3.27,6.61,3.27s.58-.83,1.09-1.85l.92-1.85-5.97-3.01c-3.28-1.66-5.97-3.12-5.97-3.26s.45-1.08,1.01-2.09c1.28-2.32,2.57-3.52,4.01-3.74.6-.09,3.58.1,6.75.43l5.67.59,1.14-2.09c.63-1.15,1.1-2.12,1.05-2.16-.05-.04-3-.31-6.56-.6-7.19-.58-7.97-.52-8.88.71-.52.71-.55.72-1.42.35-.49-.2-.92-.4-.96-.45-.04-.04.09-.56.3-1.14.73-2.07.39-4.28-.94-6.02-.95-1.25-1.76-1.75-3.88-2.44-1.67-.54-2.16-.58-3.43-.27ZM152.9,132.48c-.07.18-.09,11.52-.05,25.21l.07,24.89.58,1.62c1.03,2.9,3.36,5.85,6.77,8.58,2.13,1.7,3.54,2.61,14.82,9.55,1.23.76,3.53,2.18,5.11,3.16,1.57.98,4.03,2.51,5.46,3.4l2.6,1.61,4.5-2.53c4.13-2.32,7.42-4.22,12.72-7.33,2.61-1.53,8.04-5,10.09-6.43,3.72-2.61,6.84-6.26,8.03-9.4l.56-1.48v-25.52s0-25.52,0-25.52l-35.56-.06c-28.96-.05-35.58,0-35.68.26ZM250.77,132.48c-.07.18-.09,11.58-.05,25.33l.07,25.01.54,1.44c1.58,4.17,5.64,8.21,12.53,12.44,6.8,4.18,20.27,12.51,21.43,13.25l.88.57,2.85-1.62c13.22-7.49,21.42-12.48,25.27-15.37,2.1-1.58,5.06-4.65,5.93-6.14.35-.6.89-1.81,1.2-2.7l.57-1.62.09-20.66c.05-11.37.02-22.82-.08-25.46l-.18-4.79h-35.47c-28.79,0-35.49.06-35.59.32ZM51.57,136.06c-1.25.2-3.36,2.6-4.85,5.51-.72,1.41-1.28,2.61-1.23,2.65.22.19,9.49,4.87,9.65,4.87.1,0,.76-1.21,1.47-2.68,1.36-2.85,1.73-4.47,1.44-6.41-.38-2.56-3.44-4.42-6.47-3.94ZM156.53,143.98v8.09h64.01v-16.18h-64.01v8.09ZM254.4,142.61v6.72l10.4.06,10.4.07.07,1.31.07,1.31h-20.95v2.68l4.5,2.93,4.5,2.93,7.77-3.12c6.62-2.66,7.75-3.19,7.68-3.58-.3-1.56-.09-4.02.45-5.26.82-1.87,3.08-3.91,4.92-4.44,5.22-1.52,10.27,2.19,10.28,7.55,0,1.09-.16,2.2-.4,2.81-.22.56-.36,1.05-.31,1.1.05.05,2.28,1.48,4.95,3.18,2.67,1.7,5.68,3.63,6.7,4.28l1.84,1.18,1.77-.81c.97-.45,3.48-1.63,5.58-2.62l3.81-1.81-.07-3.43-.07-3.43-10.15-.07-10.15-.07v-2.74l10.15.02,10.15.02v-13.34l-.94-.08c-.52-.04-1.25.08-1.62.27-.37.19-4.91,2.55-10.08,5.24-5.17,2.69-9.45,4.9-9.52,4.9s-.39-.53-.72-1.18l-.6-1.18,7.22-3.73c3.97-2.05,7.4-3.87,7.63-4.04.33-.24-1.08-.29-6.92-.25l-7.33.06-1.83,2.86c-1.01,1.57-1.93,3.03-2.05,3.23-.24.4-.76.21-1.97-.71l-.58-.44,1.41-2.18c.78-1.2,1.47-2.34,1.54-2.53.11-.29-.79-.35-5.62-.35-3.17,0-5.75.06-5.75.13s.62,1.12,1.37,2.33c.75,1.21,1.43,2.37,1.5,2.57.09.24-.23.61-.91,1.06l-1.05.69-.41-.54c-.22-.3-1.18-1.82-2.13-3.39l-1.72-2.85h-7.22c-4.09,0-7.12.09-6.98.21.13.12,3.54,1.92,7.58,4.01,4.04,2.09,7.44,3.88,7.55,3.99.16.15-.57,2.01-.97,2.46-.04.05-1.12-.47-2.4-1.15-1.28-.68-4-2.11-6.06-3.17-4.03-2.08-9.92-5.14-11.33-5.89-.48-.25-1.35-.46-1.93-.46h-1.06v6.72ZM52.18,138.3c-.74.29-1.81,1.49-2.79,3.14-.55.93-.96,1.73-.91,1.78.21.19,5.75,2.91,5.79,2.84,1.38-2.72,1.87-4.52,1.56-5.78-.3-1.18-2.54-2.4-3.64-1.98ZM433.96,145.75c-1.44.62-4.41,1.89-6.6,2.83-2.19.94-6.11,2.63-8.72,3.74-4.96,2.12-11.63,5-13.01,5.61-.45.2-.81.46-.81.58s.32.94.71,1.81,1.13,2.56,1.65,3.76c.52,1.2,1.04,2.18,1.17,2.18s.56-.17.96-.38c.4-.21,1.66-.76,2.79-1.22,1.95-.79,4.87-2.04,12.65-5.38,8.8-3.79,12.93-5.56,14.13-6.05.72-.3,1.28-.6,1.25-.67-.03-.07-.77-1.81-1.64-3.86-.87-2.05-1.65-3.81-1.74-3.9-.09-.1-1.34.33-2.78.95ZM284.04,147.4c-1.86,1.27-2.85,3.44-2.39,5.26l.16.63,2.36-.98c1.3-.54,2.48-.98,2.62-.98s1.18.62,2.31,1.37l2.05,1.37.3-.69c.8-1.85,0-4.28-1.9-5.73-.97-.74-1.21-.81-2.87-.81-1.47,0-1.97.11-2.63.56ZM431.85,149.08c-1.78.79-5.26,2.3-7.72,3.36-2.46,1.06-6.11,2.63-8.09,3.48-1.99.85-4.65,1.99-5.93,2.52-2.61,1.09-2.54.91-1.43,3.42.34.78.72,1.42.83,1.42s2.83-1.13,6.04-2.52c3.21-1.39,6.46-2.77,7.21-3.08,1.26-.52,5.12-2.18,11.74-5.05,2.97-1.29,2.81-.93,1.62-3.6-.35-.79-.73-1.42-.84-1.41-.11.01-1.66.67-3.44,1.46ZM283.66,155.96c-1.51.62-3.41,1.38-4.23,1.69-.82.31-3.23,1.26-5.35,2.12-9.2,3.7-11.23,4.52-13.7,5.5-1.44.57-2.73,1.09-2.88,1.15-.34.14-1.49-2.62-1.2-2.88.12-.11.86-.45,1.66-.76.79-.31,1.48-.64,1.54-.73.08-.14-4.19-2.97-4.87-3.22-.12-.05-.22,3.73-.22,8.65v8.73h7.68l.75-2.43c.41-1.33,1.01-3.35,1.33-4.48l.57-2.05h6.6v-.83c0-.46.07-1.52.16-2.37l.16-1.53h10.04l.33,2.18c.18,1.2.38,2.26.44,2.36.06.1.65-.09,1.31-.43l1.2-.61,2.21,2.88c1.21,1.58,2.98,3.87,3.92,5.09l1.71,2.22h12.79c12.31,0,12.79-.02,12.79-.46s-1.28-1.36-8.47-5.94c-4.28-2.72-9.16-5.84-11.76-7.51-1.19-.77-3.32-2.12-4.72-3.01-1.4-.89-3.54-2.26-4.75-3.05-1.21-.79-2.22-1.43-2.25-1.42-.03,0-1.29.52-2.79,1.14ZM156.58,168.81l.07,13.51.78,1.64c.49,1.03,1.41,2.32,2.47,3.44,2.91,3.08,2.6,4.82,2.6-14.91v-17.19h-5.99l.07,13.51ZM165.99,173.85v18.54l.56.34c.31.19,1.66,1.03,3,1.87s2.49,1.53,2.55,1.53.11-9.19.11-20.41v-20.41h-6.23v18.54ZM175.76,176.9l.06,21.59,2.95,1.81c1.62,1,3,1.81,3.05,1.81s.1-10.53.1-23.4v-23.4h-6.23l.06,21.59ZM185.41,179.83v24.53l1.43.91,1.43.91,1.62-.89,1.62-.89.06-24.55.06-24.55h-6.23v24.53ZM195.13,178.86v23.55l.93-.55c.51-.3,1.92-1.11,3.11-1.78l2.18-1.23v-43.54h-6.23v23.55ZM204.59,175.99c0,17.25.06,20.67.34,20.6.19-.04,1.58-.86,3.1-1.82l2.77-1.74v-18.86s.02-18.86.02-18.86h-6.23v20.68ZM214.3,172.73c0,13.54.07,17.43.3,17.43.17,0,1.18-.89,2.25-1.98,1.38-1.4,2.18-2.47,2.75-3.67l.8-1.69.07-13.76.07-13.75h-6.25v17.43ZM316.79,163.41c-.68.33-2.36,1.11-3.72,1.74-2.1.96-2.42,1.19-2.12,1.47.45.41,7.1,4.63,7.3,4.63.08,0,.15-1.9.15-4.23s-.08-4.23-.19-4.22c-.1,0-.75.28-1.43.62ZM39.1,164.87c-3.06.7-6.86,3.09-8.66,5.45-2.9,3.8-4.58,9.78-3.96,14.11.97,6.85,5.4,11.44,13.37,13.86,2.02.61,2.62.68,6.1.69,3.37,0,4.05-.06,5.33-.54,3.49-1.3,5.91-3.14,7.83-5.96,1.4-2.06,2.14-3.82,2.79-6.64.46-1.98.53-2.87.43-5.19-.21-4.65-1.47-7.45-4.74-10.56-2.07-1.96-5.64-3.9-8.89-4.82-2.4-.68-7.41-.88-9.59-.38ZM273.73,165.2c-.07.24-.2,1.3-.29,2.37l-.17,1.93h7.32l-.14-.68c-.08-.38-.26-1.44-.42-2.37l-.28-1.68h-2.95c-2.59,0-2.96.05-3.07.43ZM441.68,166.61c-1.58.44-3,.85-3.16.91-.21.08.02,1.33.8,4.34.6,2.33,1.1,4.34,1.1,4.48,0,.14-1.87.74-4.17,1.34-2.29.6-6.9,1.81-10.23,2.69-3.34.88-7.35,1.92-8.92,2.31-1.57.39-2.91.76-2.97.82-.13.13,1.98,8.08,2.21,8.3.13.13,1.98-.33,16.62-4.17,9.09-2.39,9.71-2.54,9.81-2.42.05.05.57,1.91,1.15,4.12.59,2.21,1.15,4.16,1.25,4.33.27.44,6.97-1.21,6.97-1.72,0-.2-.71-3.06-1.58-6.36-.87-3.3-2.4-9.11-3.41-12.91-1.43-5.4-1.91-6.9-2.21-6.89-.21.01-1.68.38-3.25.82ZM40.47,166.92c-7.14,1.38-11.7,7.45-11.7,15.56,0,6.82,3.96,11.36,11.95,13.69,2.06.6,6.11.84,8.22.5,3.66-.61,7.25-3.25,9-6.63,4.41-8.5,2.3-16.74-5.33-20.81-2.39-1.28-6.13-2.25-9.02-2.35-1.37-.05-2.77-.03-3.11.03ZM442.56,168.68c-1.72.44-1.68.07-.48,4.72.6,2.3,1.09,4.32,1.09,4.49,0,.17-.41.42-.93.56-.51.14-4.18,1.1-8.16,2.14-3.97,1.04-9.41,2.46-12.08,3.16-2.67.7-4.93,1.33-5.02,1.42-.16.14.66,3.71.9,3.96.11.11,3.33-.71,19.23-4.94,3.58-.95,6.69-1.73,6.89-1.73.44,0,.46.06,1.66,4.8.51,2.02,1,3.76,1.09,3.85.15.15,2.37-.32,2.6-.56.14-.14-.64-3.22-4.81-18.92-.8-3.03-.92-3.21-2-2.93ZM283.35,169.31c-.34.17-.52.43-.45.67.07.22.53,2.8,1.03,5.75.5,2.94.99,5.44,1.09,5.54.15.17,3.38-.49,6.56-1.34l.95-.25-.45-.59c-6.29-8.31-7.68-10.09-7.9-10.07-.15,0-.52.14-.83.29ZM266.47,169.81c-.29.79-1.12,3.26-1.12,3.34,0,.05,1.16.09,2.58.09h2.58l.16-1.31c.31-2.59.45-2.43-1.96-2.43-1.47,0-2.16.1-2.24.31ZM39.39,171.63c-2.86.57-5.07,2.15-6.33,4.52-3.67,6.95.65,13.81,9.99,15.88,2.46.55,6.19.41,7.92-.28,4.07-1.64,6.38-5.35,6.13-9.86-.18-3.2-1.58-5.47-4.62-7.49-2.27-1.5-4.27-2.3-6.92-2.77-2.63-.46-3.88-.46-6.17,0ZM272.62,174.59c-.16,1.29-.29,2.69-.29,3.11v.76h9.72l-.15-1.06c-.08-.58-.31-1.94-.5-3.01-.19-1.08-.35-2-.35-2.05s-1.83-.1-4.07-.1h-4.07l-.29,2.35ZM39.71,173.81c-1.7.48-3.4,1.58-4.23,2.73-1.57,2.17-1.88,5.38-.73,7.67,2.72,5.41,13.66,7.88,17.77,4.01,2.8-2.64,3.2-7.27.87-10.09-2.62-3.18-9.76-5.44-13.68-4.32ZM264,177.65c-.82,3.17-1.14,2.8,2.44,2.8,1.72,0,3.18-.08,3.24-.19.06-.1.19-1.11.29-2.24l.18-2.05h-5.71l-.43,1.68ZM254.44,180.89c.18,2.44,1.35,4.52,4.02,7.15,2.26,2.22,4.01,3.5,9.14,6.66,1.44.89,4.13,2.54,5.98,3.68,1.85,1.14,4.48,2.76,5.85,3.61,1.37.84,3.44,2.12,4.6,2.84l2.11,1.31,1.26-.64c2.32-1.18,11.71-6.56,14.02-8.04.72-.46,1.37-.84,1.44-.84.25,0,1.85-1.13,1.86-1.31,0-.1-4.65-.19-10.33-.19h-10.34v-2.99h25.96l1.68-1.24c2.23-1.66,4.99-4.59,5.67-6.03.67-1.43,1.04-2.96,1.05-4.36v-1.06s-11.45,0-11.45,0c-10.61,0-12.08.08-11.21.62.14.08.36.36.49.61.27.5-.05.59-8.7,2.56l-3.6.82,6.59.12,6.59.12-2.04,1.56-2.04,1.56-15.86-.07-15.86-.06-.58-1.56-.58-1.56h22.95l-.14-.75c-.08-.41-.21-1.08-.29-1.49l-.14-.75h-10.64l-.08.69-.08.69-5.75.07-5.75.07.34-1.3c.54-2.06.72-1.94-2.93-1.94h-3.27l.1,1.44ZM452.22,204.92c-.98.71-4.38,3.09-7.55,5.28-3.17,2.19-6.83,4.74-8.14,5.67l-2.37,1.68-4.27.24c-2.35.13-5.44.32-6.86.41l-2.58.17.16,2.64c.09,1.45.23,3.44.31,4.43l.15,1.79,1.15-.11c.63-.06,3.7-.28,6.81-.48l5.66-.36,4.93,2.51c2.71,1.38,7.53,3.84,10.71,5.47,3.18,1.63,5.87,2.96,5.98,2.96.1,0,.12-1.09.03-2.43-.09-1.33-.17-3.41-.19-4.61l-.02-2.18-5.17-2.57c-2.84-1.41-5.76-2.87-6.49-3.25l-1.32-.68,2.94-1.93c1.62-1.06,4.32-2.82,6.01-3.91l3.07-1.98-.13-1.37c-.07-.75-.2-2.6-.28-4.11-.17-3.18-.34-4.61-.58-4.6-.09,0-.97.59-1.95,1.31ZM449.9,209.32c-1.16.81-3.18,2.22-4.48,3.13-8.76,6.13-10.61,7.34-11.2,7.34-.35,0-2.93.17-5.74.37-2.81.2-5.2.37-5.32.37-.24,0-.12,3.86.13,4.11.09.09,2.81-.02,6.03-.24l5.87-.41,9.36,4.77c5.15,2.62,9.4,4.73,9.44,4.68.04-.05.02-.98-.05-2.08l-.13-1.99-7.56-3.72c-4.16-2.05-7.56-3.78-7.56-3.86s1.38-1.03,3.05-2.11c1.67-1.09,4.11-2.67,5.41-3.51,1.3-.85,3.06-1.97,3.92-2.51l1.55-.97v-2.03c.01-1.98-.13-2.82-.45-2.82-.09,0-1.11.66-2.28,1.48ZM21.55,209.75c-1.3,2.93-1.62,4.69-1.62,9.04,0,4.62.28,6.1,1.73,9.09,1.47,3.04,4,5.63,6.96,7.14,3.1,1.58,8.51,2.46,12.23,1.99,8.14-1.03,13-6.1,14.46-15.11.2-1.24.36-3,.37-3.92,0-1.92-.48-6.49-.73-6.89-.21-.34-7.99-.7-7.99-.37,0,.13.25.9.55,1.72.47,1.26.55,2,.56,4.85,0,2.94-.07,3.56-.58,4.9-1.02,2.69-3.15,4.59-6.11,5.44-2.18.63-5.99.43-8.06-.43-4.06-1.67-6.09-4.63-6.12-8.91-.02-2.52.63-4.89,1.93-7.03,1.01-1.67,1.34-1.44-2.97-2.06-1.51-.22-3.04-.45-3.41-.52-.6-.11-.72,0-1.2,1.07ZM23.34,211.49c-.88,1.68-1.16,3.51-1.14,7.55.01,3.76.07,4.26.65,5.91,1.74,4.92,4.93,7.79,10.33,9.33,1.57.45,2.58.55,5.3.55,2.99,0,3.56-.07,5.17-.65,4.69-1.68,7.57-5.04,9.06-10.56.57-2.1.77-7.23.38-9.62l-.19-1.18h-1.5c-1.36,0-1.48.04-1.34.47.08.26.25,1.35.37,2.43.79,7.04-2.57,12.57-8.59,14.14-1.9.5-5.72.49-7.65,0-3.07-.8-5.79-2.62-7.41-4.98-1.93-2.8-2.39-7.34-1.15-11.18.67-2.08.62-2.36-.46-2.37-.27,0-.74-.07-1.04-.15-.37-.1-.61,0-.78.31ZM135.61,244.66c0,29.44.11,32.25,1.64,40.13,3.49,18.03,12.4,35.14,27.34,52.5,2.88,3.34,12.94,13.4,16.33,16.31,8.53,7.34,15.43,12.63,23.92,18.32,4.52,3.03,11.94,7.68,14.94,9.36.48.27,1.9,1.07,3.16,1.78,4.64,2.62,12.22,6.51,12.68,6.51.06,0,.11-11.37.11-25.27v-25.26l-.69-.14c-1.44-.29-3.37-1.47-4.5-2.77l-1.16-1.33h-27.46s-27.46,0-27.46,0v-8.45l-5.29-.07-5.29-.07-.07-7.16-.07-7.16h10.72v-16.68h-10.71v-14.19h10.72l-.07-8.4-.07-8.4-5.29-.07-5.29-.07v-14.18h10.71v-8.46h8.45l.07-1.68.07-1.68,10.33-.15c10.23-.15,13.36-.35,24.91-1.59,5.56-.6,11.52-.48,14.67.29.36.09,1.13.36,1.71.61l1.06.45v-18.41h-100.12v25.37ZM239.37,219.46c-.24.24-.2,17.96.04,18.11.11.07.87-.14,1.68-.47,2.96-1.19,9.28-1.49,15.92-.76,11.21,1.23,17.59,1.63,26.45,1.63h8.79v3.49h8.47v8.45l5.29.07,5.29.07.07,7.03.07,7.03-5.3.07-5.3.07-.07,8.4-.07,8.4h10.72l-.07,7.03-.07,7.03-5.29.07-5.29.07v16.67h10.72l-.07,7.16-.07,7.16-5.29.07-5.29.07v8.45h-54.98l-.9,1.09c-1.1,1.34-2.92,2.58-4.12,2.79-.49.09-1.04.27-1.21.41-.24.19-.31,5.57-.31,25.36,0,13.81.04,25.12.09,25.12.85,0,13.55-6.92,20.44-11.14,24.77-15.16,44.82-32.59,58.22-50.61,1.9-2.56,6.67-9.56,6.67-9.8,0-.05.62-1.13,1.39-2.41,5.1-8.51,9.34-19.61,11.29-29.62,1.39-7.13,1.35-6.08,1.45-37.53l.09-29.19h-49.66c-27.31,0-49.73.07-49.82.17ZM218.79,239.96c-10.95,1.22-18.61,1.74-25.42,1.74h-6.71v82.33l4.67.17c3.5.13,6.63.04,12.51-.33,16.1-1.03,24.77-1.44,26.08-1.24,1.65.26,3.13.92,4.62,2.07l1.18.91v-83.31l-.56-.51c-2.24-2.05-8.26-2.71-16.38-1.81ZM247.18,239.63c-4.03.42-6.47,1.23-7.46,2.49-.5.64-.5.85-.5,42.06,0,22.78.05,41.42.12,41.42s.66-.41,1.31-.91c1.54-1.18,2.85-1.75,4.68-2.04,1.45-.23,11.75.26,27.88,1.32,4.21.28,7.39.34,10.77.22l4.79-.17-.06-41.1-.06-41.1-8.09-.15c-7.87-.15-12.66-.48-24.28-1.71-4.4-.46-6.94-.56-9.09-.33ZM178.25,288.19l.06,43.01,26.95.06,26.95.06.28,1.04c.69,2.56,3.91,3.86,7.28,2.92,1.23-.34,2.58-1.72,2.92-2.97l.27-1h54.02v-86.14h-4.74l.02,41.27.02,41.26-7.79.07c-5.71.05-9.99-.06-16.01-.43-4.52-.28-11.33-.68-15.14-.9-8.84-.5-8.71-.53-12.03,2.63-3.5,3.33-4.48,3.32-7.74-.11-2.94-3.1-2.5-3.02-13.94-2.38-5.05.28-11.7.68-14.78.88-3.08.2-9.27.37-13.76.37h-8.16s0-41.33,0-41.33v-41.33h-4.73l.06,43.01ZM212.31,247.93c-5.27.52-10.55.96-11.73.97-1.18,0-3.51.09-5.18.18l-3.04.16.07,1.77.07,1.77,3.98-.08c3.64-.07,14.47-.86,21.54-1.56,1.58-.16,4.8-.3,7.16-.32l4.29-.03v-1.77s0-1.77,0-1.77l-1.53-.16c-2.77-.29-5.95-.12-15.65.85ZM246.62,247.11l-1.18.09v1.79s0,1.79,0,1.79l4.42.03c2.43.02,6.89.26,9.9.55,7.79.74,14.86,1.25,19.11,1.37l3.67.11v-3.63l-4.17-.15c-2.3-.08-9.21-.6-15.38-1.15-10.32-.93-13.12-1.07-16.38-.81ZM167.48,257.13v3.48h6.97v-6.97h-6.97v3.49ZM300.72,257.13v3.48h6.97v-6.97h-6.97v3.49ZM212.69,254.78c-4.52.45-9.9.89-11.95.97-2.05.08-4.77.21-6.04.29l-2.3.14v3.44h3.46c3.53,0,12.91-.66,20.08-1.4,2.19-.23,6.14-.43,8.78-.44l4.79-.02v-1.77s0-1.77,0-1.77l-.93-.15c-2.01-.33-8.02-.06-15.88.73ZM246.12,254.07c-.67.1-.69.13-.68,1.89v1.79s4.67.02,4.67.02c2.68.01,7.16.25,10.52.57,3.22.3,7.08.66,8.59.8,1.51.14,5.12.32,8.03.4l5.29.15v-3.52l-2.05-.14c-1.13-.07-3.71-.2-5.73-.27-2.02-.07-7.78-.53-12.79-1-8.28-.79-13.65-1.02-15.85-.69ZM213.56,266.85c-3.77.38-9.93.82-13.7.98-3.77.16-6.99.33-7.16.39-.21.07-.31.67-.31,1.87v1.77l4.17-.16c6.1-.23,11.47-.59,17.25-1.16,2.81-.27,7.49-.56,10.4-.64l5.29-.15v-1.68c0-1.3-.09-1.72-.39-1.83-.95-.36-9.09-.05-15.54.61ZM245.87,266.27c-.36.09-.44.4-.44,1.84v1.73h3.67c3.66,0,5.94.15,13.26.85,4.24.4,10.2.78,16.25,1.03l3.92.16v-3.79h-1.56c-3.86,0-12.91-.57-19.86-1.25-6.93-.68-13.86-.93-15.25-.57ZM222.15,272.99c-.55.05-5.14.47-10.21.94-5.07.47-11.44.91-14.16.99s-5.04.2-5.17.28c-.27.17-.31,3.27-.04,3.42.1.05,2.76.01,5.91-.1,5.53-.19,10.16-.52,18.79-1.35,2.25-.21,5.92-.41,8.16-.44l4.06-.05v-1.77s0-1.77,0-1.77l-2.43-.16c-2.43-.16-3.04-.16-4.92.01ZM247.24,272.99l-1.81.1v3.59l4.05.05c2.23.03,7.13.33,10.9.68,7.6.7,13.57,1.08,18.74,1.22l3.42.09v-3.57l-2.65-.16c-1.46-.09-3.81-.16-5.21-.16s-6.63-.39-11.6-.86c-9.66-.92-12.96-1.12-15.83-.96ZM418.29,277.98c-.74,2.84-1.89,7.2-2.55,9.68-.66,2.48-1.21,4.67-1.21,4.87,0,.25,1.75.85,5.91,2.02,6.8,1.92,13.06,3.66,13.13,3.66.03,0,.12-1.26.2-2.8.18-3.29.8-5.66,1.93-7.3,1.87-2.72,5.27-2.65,7.16.14.53.78.58,1.08.49,2.98-.11,2.53-.67,3.94-2.62,6.67-.73,1.02-1.28,1.91-1.2,1.99.17.17,7.15,2.29,7.55,2.3.65,0,3-5.72,3.69-9.03.98-4.64-.02-9.15-2.66-12.01-2.29-2.48-5.39-3.71-9.43-3.72-2.18,0-2.88.09-4.23.6-2.99,1.13-5.7,4.64-6.48,8.38-.15.74-.34,1.34-.42,1.34-.35,0-3.7-1.06-3.88-1.22-.23-.21.18-2.06,1.71-7.68.62-2.27,1.03-4.2.92-4.31-.21-.2-5.82-1.73-6.35-1.73-.22,0-.78,1.75-1.67,5.17ZM54.79,274.63c-.55.13-3.85.99-7.35,1.92-7.77,2.06-18.6,4.93-22.26,5.89-1.49.39-2.76.83-2.82.99-.1.25,1.8,7.67,2.07,8.1.06.09,1.53-.22,3.28-.69,6.29-1.7,10.09-2.62,10.38-2.51.16.06.42.6.56,1.2.88,3.59,2.31,9,2.39,9.08.07.07,5.46-1.32,6.81-1.76.19-.06-.12-1.63-.94-4.78-.67-2.58-1.28-4.97-1.36-5.32-.14-.62-.09-.65,2.55-1.29,1.48-.36,2.73-.62,2.77-.58.06.06,1.73,6.08,2.78,10.01l.28,1.03,1.55-.45c.85-.25,2.46-.69,3.57-.99l2.01-.53-1.58-5.9c-.87-3.24-2.04-7.63-2.6-9.76-.56-2.12-1.04-3.87-1.06-3.88-.02-.01-.48.09-1.03.22ZM421.18,275.74c-.06.1-.24.8-.41,1.56-.17.75-1.03,4.07-1.9,7.37-.88,3.3-1.59,6.16-1.59,6.35,0,.24.73.55,2.18.94,1.2.32,4.31,1.19,6.91,1.92,2.6.74,4.8,1.34,4.88,1.34s.23-.73.33-1.63c.34-3.3,1.91-6.89,3.62-8.27,2.51-2.02,6.28-1.8,8.69.52,1.26,1.21,1.59,2.06,1.73,4.4.15,2.7-.36,4.8-1.69,6.93-.65,1.04-.88,1.6-.67,1.66.17.05.89.26,1.6.46l1.29.36.55-1.28c1.8-4.18,2.08-5.35,2.09-8.62,0-2.86-.05-3.23-.66-4.52-1.75-3.74-5.64-5.89-10.17-5.62-4.39.26-7.04,3.15-7.94,8.65l-.39,2.39-3.12-.86c-1.72-.47-3.71-1.02-4.43-1.21-.76-.2-1.31-.49-1.31-.69s.67-2.85,1.49-5.92c.82-3.07,1.49-5.65,1.49-5.73,0-.16-1.65-.67-2.16-.67-.16,0-.35.08-.4.19ZM51.43,277.84c-1.03.28-4.84,1.29-8.47,2.25-11.61,3.07-17.8,4.73-17.89,4.81-.04.04.16.98.47,2.1.44,1.62.63,2,.95,1.9,2.48-.76,12.48-3.38,12.89-3.38.45,0,.59.26.94,1.68.23.92.84,3.25,1.37,5.17,1.05,3.81.85,3.6,2.8,3.09l.91-.24-.85-3.3c-.47-1.81-1.09-4.17-1.38-5.23-.29-1.06-.48-1.98-.42-2.04.14-.14,9.21-2.62,9.58-2.62.15,0,.35.31.44.68.39,1.74,2.62,10.08,2.72,10.18.11.11,2.43-.39,2.64-.57.06-.05-.78-3.45-1.87-7.55-2.24-8.49-1.74-7.77-4.84-6.93ZM167.65,284.68c-.09.09-.17,1.66-.17,3.49v3.32h6.97v-6.97h-3.32c-1.83,0-3.4.07-3.49.17ZM300.72,288v3.49h6.99l-.07-3.42-.07-3.42-3.42-.07-3.42-.07v3.49ZM219.53,285.31c-11.17,1.05-16.56,1.47-20.47,1.59-2.51.07-5.04.19-5.62.26l-1.06.13v3.53l5.04-.15c4.78-.14,14.34-.85,19.24-1.42,1.23-.14,4.62-.28,7.53-.31l5.29-.05v-1.77s0-1.77,0-1.77l-1.53-.16c-1.96-.21-5.42-.15-8.43.13ZM246.49,285.2l-1.06.1v1.79s0,1.79,0,1.79l5.12.04c2.82.02,6.26.17,7.66.31,6,.64,14.61,1.28,19.28,1.43l5.04.16v-3.53l-1.06-.13c-.58-.07-3.05-.19-5.5-.26-3.85-.11-8.27-.46-20.98-1.63-2.64-.24-6.27-.27-8.52-.07ZM219.66,292.28c-9.6.94-16.55,1.49-20.05,1.6-2.26.07-4.81.19-5.67.26l-1.56.13v3.52l5.29-.16c2.91-.09,7.81-.38,10.89-.66,9.58-.86,16.47-1.3,18.74-1.2l2.18.1v-3.57l-1.68-.16c-2.14-.2-5.3-.15-8.16.13ZM246,292.16c-.52.1-.56.24-.56,1.9v1.79s4.92.03,4.92.03c3.09.02,8.29.32,14.01.8,5,.42,11.14.85,13.64.94l4.55.17v-3.73l-5.29-.17c-4.61-.15-8.53-.45-21.5-1.64-2.68-.25-8.63-.3-9.76-.08ZM212.31,305.07c-4.59.45-10.47.9-13.07.98-2.6.08-5.21.21-5.79.28l-1.06.13v3.53l5.04-.16c4.33-.14,11.57-.68,22.1-1.65,1.44-.13,4.27-.25,6.29-.25h3.67v-1.72c0-1.57-.05-1.73-.56-1.86-1.4-.37-8.77-.05-16.62.73ZM245.87,304.36c-.36.09-.44.4-.44,1.8v1.69l5.42.15c2.98.08,6.37.26,7.53.4,4.27.52,14.45,1.27,19.24,1.43l4.92.16v-3.53l-1.06-.13c-.58-.07-3.08-.19-5.55-.27-2.47-.08-8.55-.53-13.53-1.01-8.28-.8-15.07-1.08-16.54-.7ZM52.8,306.03c-8.09,1.86-14.36,7.1-15.96,13.34-.67,2.6-.4,6.76.6,9.45,2.29,6.15,6.62,10.37,11.9,11.61,2.35.55,6.55.37,8.93-.39,5.97-1.89,10.69-5.52,12.85-9.86,3.1-6.23,1.18-15.01-4.45-20.31-1.98-1.87-3.42-2.77-5.58-3.47-2.05-.66-6.23-.85-8.29-.38ZM409.36,307.27c-3.73,3.95-5.63,9.29-4.79,13.47.17.82.71,2.33,1.2,3.36,2.67,5.51,11.95,11.38,19.68,12.44,5.87.81,10.48-2.29,12.53-8.43.41-1.24.55-2.22.54-3.93,0-2.03-.1-2.47-.79-3.96-1.58-3.36-5.55-6.34-9.99-7.48-4.27-1.09-8.46.69-10.81,4.6-1.16,1.94-1.73,3.82-1.58,5.19l.13,1.12-1.2-1.19c-3.21-3.17-2.91-6.62.92-10.51l1.78-1.81-2.4-1.68c-2.6-1.82-3.7-2.55-3.85-2.55-.05,0-.67.6-1.37,1.34ZM52.98,308.28c-3.7.84-7.61,2.97-10.27,5.61-2.98,2.95-4.16,5.94-3.92,9.93.39,6.62,4.85,12.62,10.63,14.32,1.58.46,4.89.52,6.79.12,3.49-.74,7.53-2.89,10.05-5.34,2.83-2.76,4.09-5.66,4.1-9.45,0-6.3-4.19-12.73-9.66-14.82-1.82-.69-5.49-.87-7.71-.36ZM410.5,309.35c-.9,1.04-2.45,3.58-3.09,5.06-.6,1.37-.7,1.95-.71,3.97-.01,2.21.05,2.49.88,4.23,1.66,3.47,5.33,6.7,10.31,9.09,6.3,3.01,9.88,3.5,13.28,1.8,2.31-1.15,4.43-4.43,5.05-7.81.65-3.5-1.18-6.8-5-9.05-4.62-2.72-8.38-2.61-11.14.32-1.78,1.89-2.44,3.39-2.44,5.53,0,1.45.11,1.94.68,2.91.38.64.69,1.21.69,1.27s-.44.25-.97.42c-.95.31-1,.3-2.74-.83-2.29-1.48-3.85-3.13-4.81-5.07-.71-1.44-.76-1.7-.65-3.61.13-2.34.71-3.73,2.42-5.79.56-.68,1.02-1.29,1.02-1.36,0-.14-2.08-1.5-2.29-1.5-.07,0-.29.2-.5.44ZM222.52,311.07c-.75.05-4.9.44-9.21.86-4.31.42-10.76.89-14.32,1.05l-6.48.29-.07,1.83-.07,1.83,4.43-.16c4.85-.18,10.93-.62,19.37-1.4,3.01-.28,7.24-.52,9.4-.54l3.92-.03v-3.64h-1.56c-.86,0-2.12-.04-2.8-.09-.69-.05-1.86-.05-2.61,0ZM247.49,311.09l-2.05.09v3.61l4.05.04c2.23.02,5.9.21,8.16.43,7.2.69,15.93,1.34,20.48,1.51l4.42.17v-3.71l-5.17-.17c-2.84-.09-9.31-.55-14.38-1.01-10.25-.94-12.51-1.07-15.5-.95ZM53.7,312.78c-8.37,2.33-13.25,8.64-11.25,14.53,1.04,3.08,2.77,5.1,5.41,6.32,1.03.48,1.61.55,4.07.54,2.6-.01,3.06-.09,4.97-.81,7.73-2.93,11.64-8.61,9.75-14.19-.62-1.82-1.97-3.97-2.97-4.71-.38-.28-1.3-.83-2.05-1.21-1.19-.62-1.67-.71-3.97-.77-1.76-.05-3.05.05-3.95.3ZM53.67,315.11c-3.66,1.17-7.38,3.94-8.74,6.51-.84,1.59-.83,4.34.02,6.09,1.73,3.56,4.9,4.93,9.33,4.01,3.9-.81,7.89-3.41,9.6-6.27.8-1.35.87-1.61.87-3.46,0-1.68-.11-2.2-.67-3.28-.87-1.66-2-2.77-3.55-3.49-1.58-.74-4.76-.79-6.85-.12ZM167.48,319.12v3.49h6.97v-6.97h-6.97v3.48ZM300.72,319.12v3.49h6.97v-6.97h-6.97v3.48ZM422.26,319.67c-2.48,1.28-3.44,4.32-2.17,6.82,1.48,2.9,6.67,5.28,9.5,4.34,1.2-.39,2.53-1.57,3.14-2.77.63-1.24.63-3.19,0-4.4-1.8-3.47-7.37-5.59-10.48-3.99ZM422.64,322.18c-1.88,1.88-.73,4.43,2.66,5.87,1.74.74,2.77.84,3.92.38,1.2-.48,1.76-1.37,1.76-2.8,0-1.92-2.97-4.04-5.91-4.23-1.5-.1-1.58-.07-2.43.78ZM395.61,337.37c-3.1.88-6.29,3.39-8.4,6.59-1.46,2.22-2.11,4.06-2.24,6.41-.16,2.86.47,4.44,2.65,6.62,2.46,2.46,5.33,3.37,8.4,2.65l1.53-.35.12,1.82c.45,6.94,8.4,11.01,14.51,7.42,2.85-1.67,6.23-5.9,7.38-9.23.9-2.62.82-5.17-.22-7.39-1.04-2.2-2.95-4.08-5.38-5.28-1.81-.9-1.89-.91-4.18-.8-1.28.06-2.57.2-2.85.29-.48.16-.54.06-.66-1.18-.18-1.76-.93-3.19-2.58-4.92-2.29-2.4-5.38-3.42-8.06-2.65ZM81.54,339.73c-.63.51-2.57,2.04-4.32,3.41-14.02,10.98-14.8,11.69-16.3,14.81-.85,1.77-.9,2-.89,4.36,0,2.16.1,2.72.72,4.23.84,2.04,1.81,3.62,3.59,5.84,3.65,4.53,7.87,6.54,12.17,5.77,2.86-.51,4.95-1.69,9.55-5.37,1.03-.83,3.03-2.4,4.44-3.5,1.41-1.1,3.48-2.72,4.6-3.61,1.12-.89,2.67-2.1,3.45-2.69,2.19-1.67,2.17-1.51.52-3.57-.8-1-2-2.52-2.67-3.38-.77-1-1.3-1.48-1.48-1.35-.32.25-6.61,5.17-9.57,7.5-1.14.9-2.99,2.36-4.11,3.25-3.77,3.01-5.66,3.98-7.77,3.98-1.11,0-1.49-.13-2.39-.82-1.77-1.35-2.53-2.65-2.54-4.34,0-1.01.15-1.74.52-2.44.58-1.1,2.98-3.52,4.95-5.01,4.46-3.37,14.04-11.03,14.04-11.23,0-.18-5.16-6.79-5.29-6.77-.04,0-.58.43-1.21.93ZM396.23,339.51c-2.94.76-6.17,3.67-7.88,7.13-.99,2-1.08,2.35-1.08,4.07,0,2.18.46,3.34,1.87,4.75,2.27,2.27,5.27,2.67,8.59,1.15,1.19-.54,1.32-.56,1.77-.19.45.36.48.64.39,2.91-.09,2.18-.03,2.67.45,3.79.65,1.51,2.28,3.11,3.94,3.87,1.69.78,4.48.75,6.1-.05,1.64-.81,3.91-2.97,5.28-5.02,3.62-5.45,2.65-10.58-2.5-13.19-2.22-1.13-3.87-1.12-6.33,0-1.64.76-1.79.78-2.34.42-.56-.37-.59-.5-.47-2.25.1-1.61.03-2.04-.5-3.21-1.39-3.03-4.61-4.89-7.29-4.2ZM79.07,344.54c-1.71,1.37-5.3,4.21-7.97,6.3-7.56,5.93-8.85,7.61-8.83,11.47,0,1.46.16,2.37.57,3.41,1.34,3.4,5.21,7.94,7.87,9.24,4.31,2.11,7.1,1.38,13.34-3.52,1.85-1.45,5.58-4.37,8.28-6.48,2.71-2.11,4.92-3.93,4.92-4.03s-.52-.85-1.17-1.65c-.64-.8-1.2-1.49-1.23-1.55-.07-.1-.2,0-3.33,2.46-2.33,1.84-3.4,2.67-8.67,6.79-4.49,3.51-6.37,4.49-8.9,4.62-2.31.12-3.92-.54-5.45-2.24-1.68-1.86-2.26-3.24-2.24-5.31.02-2.13.58-3.42,2.38-5.44,1.21-1.35,2.12-2.11,9.46-7.88,1.83-1.44,4-3.16,4.83-3.82.83-.66,1.66-1.29,1.85-1.4.27-.15.04-.58-.98-1.85-.73-.91-1.39-1.65-1.47-1.64-.08,0-1.54,1.13-3.26,2.51ZM394.52,343.64c-2.1.75-3.75,3.29-3.76,5.78,0,1.31.1,1.69.74,2.59,1,1.42,2.36,2.1,4.16,2.09,1.15,0,1.78-.19,3.36-1,2.34-1.19,2.63-1.64,2.5-3.85-.17-2.73-1.75-4.93-4.01-5.61-1.49-.44-1.74-.44-2.98,0ZM394.15,346.63c-1.59,1.81-1.6,3.74-.02,4.81,1.02.69,1.96.59,3.84-.41,1.45-.78,1.66-1.44,1-3.19-.54-1.4-1.49-2.08-2.94-2.08-.97,0-1.22.12-1.88.87ZM406.44,352.43c-1.73.6-3.55,1.7-3.72,2.27-.22.7-.23,3.51-.01,4.51.42,1.9,2.4,3.77,4.54,4.26,3.44.79,7.1-2.29,7.13-6.01.03-3.95-3.88-6.43-7.94-5.03ZM407.19,354.56c-2.34.92-2.55,1.21-2.39,3.39.2,2.71,3.29,4.17,5.57,2.62,3.7-2.51.99-7.64-3.18-6.01ZM372.24,362.84c-1.39,1.46-2.53,2.84-2.53,3.06s-.28,3.25-.62,6.74c-.34,3.48-.59,6.35-.56,6.37.08.05,6.98.87,7.31.87.18,0,.35-.97.46-2.74.1-1.51.29-2.74.43-2.74s2.56,2.27,5.39,5.05c2.83,2.77,6.58,6.44,8.32,8.15l3.18,3.1,2.98-2.98c1.64-1.64,2.98-3.1,2.98-3.26s-.98-1.21-2.18-2.33c-1.2-1.13-4.42-4.25-7.16-6.94-5.94-5.82-13.06-12.74-14.47-14.06l-1.01-.95-2.53,2.66ZM373.36,364.89l-1.41,1.43-.52,5.3c-.29,2.91-.48,5.35-.42,5.4s.77.13,1.58.17l1.48.07.19-2.61c.3-4.13.45-5.26.69-5.18.12.04,3.67,3.44,7.89,7.55,4.22,4.11,8.37,8.14,9.23,8.95l1.56,1.47,1.36-1.34c.75-.74,1.36-1.47,1.36-1.63s-.99-1.23-2.21-2.37c-1.21-1.15-5.93-5.73-10.48-10.18-4.55-4.45-8.41-8.17-8.58-8.27-.19-.11-.85.37-1.72,1.25ZM103.95,375.2c-2.52,3.04-7.42,8.94-10.89,13.1-3.47,4.17-6.36,7.71-6.43,7.88-.09.24,3.17,3.15,5.9,5.28.33.26,1.36-.87,6.97-7.63,3.62-4.36,6.61-7.91,6.65-7.87.06.06-.51,2.62-3.44,15.5-.82,3.58-1.48,6.68-1.48,6.88s1.64,1.74,3.65,3.42l3.65,3.06.89-.98c.49-.54,4.31-5.11,8.49-10.15,4.18-5.04,8.8-10.61,10.27-12.37l2.67-3.2-2.02-1.69c-1.11-.93-2.51-2.11-3.12-2.62-.61-.51-1.21-.93-1.33-.93s-1.41,1.43-2.86,3.17c-1.45,1.75-4.34,5.22-6.43,7.73-2.08,2.5-3.82,4.39-3.86,4.2-.04-.2.55-3.03,1.31-6.3.76-3.27,1.57-6.78,1.79-7.81.22-1.03.72-3.21,1.1-4.85.49-2.14.61-3.08.43-3.3-.28-.34-6.61-5.58-7.07-5.86-.17-.1-2.13,2.07-4.86,5.36ZM104.2,378.44c-11.96,14.37-14.42,17.38-14.42,17.58,0,.12.62.76,1.39,1.41,1.17,1,1.44,1.13,1.72.84.18-.19,3.66-4.38,7.74-9.31,4.08-4.93,7.46-8.95,7.52-8.93s.42.26.8.54l.69.51-.95,4.19c-2.61,11.53-4.46,19.77-4.71,21.07-.33,1.65-.54,1.34,2.6,3.86l1.72,1.38.97-1.09c.86-.97,3.81-4.51,14.08-16.89,1.54-1.86,3.14-3.8,3.55-4.3l.74-.91-1.47-1.27-1.47-1.27-1.46,1.7c-.8.94-4.3,5.14-7.79,9.34-5.96,7.19-6.36,7.62-6.84,7.3-1.07-.71-1.06-.81.78-8.79.97-4.23,2.29-9.98,2.92-12.79.63-2.81,1.2-5.28,1.26-5.49.08-.26-.66-1.02-2.24-2.3-1.29-1.05-2.39-1.91-2.44-1.91s-2.16,2.49-4.7,5.54ZM140.37,397.23c-.53,1.06-3.28,6.39-6.1,11.85-2.82,5.46-5.13,9.96-5.13,10s-.78,1.54-1.74,3.32c-.96,1.78-1.74,3.34-1.74,3.46,0,.32,10.02,5.39,12.62,6.39,5.54,2.13,10.39,2.16,14.38.09,2.04-1.06,5.17-4.25,6.69-6.81.65-1.1,1.6-3.17,2.11-4.6.87-2.45.92-2.78.92-5.59,0-2.79-.05-3.12-.8-4.93-1-2.44-1.81-3.6-3.96-5.68-2.18-2.11-4.51-3.66-9.17-6.07-2.05-1.07-4.34-2.26-5.08-2.65-.74-.39-1.49-.71-1.68-.71s-.77.87-1.31,1.93ZM142.01,399.08c-.24.43-1.58,2.98-2.96,5.66-3.57,6.93-5.93,11.49-8.36,16.16-1.16,2.23-2.07,4.1-2.02,4.16.4.4,10.13,5.11,11.43,5.53,2.73.89,5.7,1.2,7.92.83,2.85-.48,4.33-1.28,6.66-3.62,1.69-1.7,2.24-2.46,3.3-4.63,1.34-2.72,2.27-5.82,2.27-7.58,0-4.88-3.06-9.32-8.71-12.65-2.27-1.34-8.61-4.65-8.89-4.65-.11,0-.4.35-.65.78ZM327.97,399.56c-3.29.55-6.04,1.74-14.86,6.43l-2.93,1.56,1.35,2.53c.74,1.39,1.82,3.42,2.4,4.52.58,1.1,1.36,2.55,1.74,3.24.38.69,1.19,2.2,1.81,3.36,1.61,3.03,4.67,8.75,5.94,11.1.6,1.11,1.54,2.87,2.09,3.92.55,1.05,1.1,1.91,1.22,1.91.12,0,.91-.38,1.74-.84.83-.46,3.14-1.71,5.11-2.76,7.74-4.13,10.93-7.05,12.76-11.67.74-1.87.8-2.25.81-4.89,0-2.48-.09-3.15-.7-4.98-3.25-9.79-10.16-14.81-18.48-13.42ZM329.36,401.7c-1.64.2-4.04.83-5.69,1.49-1.35.54-9.83,4.87-10.23,5.23-.16.14,2.02,4.37,5.99,11.6.81,1.48,1.47,2.73,1.47,2.79s.84,1.63,1.87,3.48c1.03,1.85,1.87,3.42,1.87,3.49,0,.1,2.7,5.06,2.9,5.32.12.16,8.11-4.23,10.02-5.52,4.53-3.04,7.16-6.85,7.43-10.79.1-1.52.02-2.45-.38-4.02-1.04-4.13-3.96-8.82-6.75-10.87-2.16-1.59-5.83-2.54-8.49-2.21ZM144.42,403.58c-2.01,3.95-9.08,17.62-9.85,19.05l-.97,1.81,3.06,1.5c3.47,1.7,5.28,2.11,8.09,1.86,6.86-.63,12.2-8.52,10.41-15.39-.95-3.63-3-5.99-7.17-8.23-1.44-.77-2.74-1.4-2.89-1.4s-.45.36-.68.81ZM324.38,406.08c-1.73.59-5.98,2.82-5.98,3.13,0,.1.1.29.22.42.12.13,1.03,1.81,2.03,3.72.99,1.92,1.89,3.6,1.99,3.73.17.24,3.1,5.71,5.79,10.83.68,1.3,1.32,2.45,1.42,2.56.33.37,5.71-2.85,7.09-4.24,3.7-3.73,4.38-8.64,1.92-13.9-.85-1.81-3.06-4.31-4.66-5.24-2.89-1.69-6.71-2.09-9.82-1.02ZM145.16,407.07c-.36.72-1.47,2.87-2.46,4.79-4.98,9.62-5.85,11.34-5.85,11.52,0,.38,3.6,1.86,5.17,2.13,1.16.2,1.92.19,2.98-.03,3.28-.69,5.53-2.55,7.23-5.98.88-1.79.93-2.02.93-4.27,0-2.04-.09-2.57-.65-3.75-.94-1.99-2.65-3.76-4.67-4.82-.95-.5-1.79-.91-1.87-.91s-.44.59-.81,1.31ZM325.01,408.23c-.69.25-1.78.76-2.43,1.14l-1.19.68.73,1.28c.77,1.35,2.92,5.36,6.44,11.99,1.16,2.19,2.19,4.06,2.27,4.16.09.1,1.05-.36,2.14-1.02,5.47-3.31,6.67-9.08,3.01-14.51-1.21-1.79-2.69-2.98-4.66-3.73-1.61-.61-4.62-.6-6.31.02ZM357.63,409.78c-1.51,1.08-3.07,2.21-3.46,2.52l-.73.57,2.44,3.48c1.34,1.91,2.48,3.52,2.52,3.57.05.05,1.18-.69,2.52-1.64,1.34-.95,2.91-2.06,3.49-2.46.58-.4,1.06-.81,1.06-.92,0-.11-.34-.67-.76-1.25-.42-.58-1.43-2-2.25-3.16-.82-1.16-1.63-2.24-1.79-2.39-.22-.2-1,.23-3.04,1.68ZM358.2,412.2l-1.67,1.19,1.17,1.66c.64.91,1.25,1.66,1.35,1.66.1,0,.91-.51,1.79-1.15l1.6-1.15-1.16-1.7c-.64-.94-1.22-1.7-1.29-1.7-.07,0-.88.54-1.79,1.19ZM177.34,412.27c-.06.19-.55,1.85-1.09,3.7-.54,1.85-1.79,6.16-2.79,9.58-1,3.42-2.46,8.41-3.25,11.08-1.7,5.71-2.47,8.55-2.36,8.66.08.08,7.24,2.22,15.91,4.76,2.44.71,4.49,1.26,4.54,1.21.09-.09,1.87-6.29,1.94-6.76.03-.19-4.03-1.48-9.99-3.16-1.58-.45-2.03-.67-1.95-.97,1.09-4.02,1.5-5.44,1.67-5.77.19-.37.41-.35,2.39.18,1.2.32,3.64,1.03,5.42,1.58s3.31.91,3.4.81c.19-.2,1.96-6.22,1.96-6.65,0-.23-4.34-1.61-10.02-3.18-1.06-.29-1.06-.12-.02-3.63.74-2.48-.08-2.44,7.21-.32,2.9.84,5.37,1.53,5.49,1.53s.37-.59.55-1.31c.18-.72.6-2.23.93-3.36.34-1.13.55-2.15.48-2.27-.07-.12-1.06-.47-2.19-.77-1.13-.3-3.68-1.03-5.67-1.63s-5.45-1.61-7.7-2.24c-2.25-.64-4.24-1.22-4.42-1.29-.18-.07-.38.02-.44.21ZM178.84,415.17c-.11.4-1.27,4.36-5.43,18.59-.96,3.29-2.01,6.87-2.33,7.96-.32,1.09-.54,2.03-.49,2.08s2.37.75,5.16,1.55c2.78.8,6.35,1.85,7.92,2.33,1.57.48,2.93.79,3.02.7.24-.28.72-1.82.72-2.33,0-.25-.16-.46-.35-.46-.39,0-11.42-3.22-11.58-3.38-.18-.17,3.06-10.81,3.29-10.81.17,0,9.38,2.71,10.56,3.11.23.08,1.07-2.02,1.07-2.68,0-.06-.53-.26-1.18-.43-4.01-1.06-9.78-2.85-9.78-3.04s2.74-9.47,2.83-9.58c.02-.02,2.72.73,6.01,1.68,3.29.95,6,1.72,6.02,1.72.12,0,.87-2.53.78-2.63-.11-.11-6.05-1.89-11.03-3.32-1.51-.43-3.27-.94-3.91-1.14-1.07-.32-1.18-.32-1.29.07ZM277.19,417.91c-2.06.49-3.75.9-3.78.91-.02,0-.49,3.1-1.04,6.86-.55,3.77-1.76,12.02-2.69,18.35-.93,6.33-1.63,11.56-1.57,11.62.15.15,8.51-1.79,8.72-2.03.09-.1.36-1.7.61-3.54.58-4.36.59-4.39,1.91-4.61.59-.1,2.95-.61,5.25-1.14,2.3-.53,4.32-.97,4.48-.97s1.2,1.37,2.3,3.03c1.09,1.67,2.06,3.14,2.15,3.27.1.14,1.03.03,2.37-.28,1.21-.29,3.3-.76,4.63-1.05,1.34-.29,2.43-.62,2.43-.72s-.2-.46-.45-.79c-.43-.56-1.22-1.71-6.9-10.05-2.35-3.45-4.67-6.85-7.57-11.08-.99-1.44-2.71-3.98-3.84-5.66-1.73-2.57-2.14-3.04-2.67-3.02-.34,0-2.3.42-4.36.91ZM277.97,420.09c-1.35.31-2.5.62-2.56.68-.06.06-.28,1.38-.48,2.94-.2,1.56-1.03,7.26-1.84,12.67-1.61,10.76-2.34,16.18-2.2,16.32.15.15,3.54-.67,3.8-.91.13-.12.47-1.92.75-4l.51-3.78,4.61-1.06c2.53-.58,5.76-1.33,7.17-1.67l2.56-.6,2.01,3.02c1.1,1.66,2.13,3.15,2.29,3.31.22.23.77.18,2.4-.21,1.16-.28,2.15-.54,2.2-.59.05-.05-.78-1.35-1.85-2.9-2.16-3.14-5.21-7.61-9.15-13.4-5.94-8.72-7.18-10.46-7.47-10.43-.16.02-1.4.29-2.75.61ZM210.2,420.75c-.09.26-2.87,33.43-2.87,34.26,0,.12,2.44.42,5.43.67,6.22.51,11.73.43,14.12-.22,5.55-1.5,9.53-5.5,10.93-10.98,1.37-5.34.95-10.69-1.12-14.56-1.7-3.17-4.18-5.26-8.01-6.74-2.86-1.11-5.75-1.64-11.39-2.09-2.67-.21-5.33-.45-5.92-.53-.75-.1-1.09-.04-1.18.19ZM212.21,423.23c-.06.18-.4,4.14-.76,8.8-.36,4.66-.88,11.25-1.15,14.66-.27,3.41-.44,6.25-.38,6.31.32.32,8.59.84,11.61.73,5.44-.2,8.41-1.32,11.05-4.16,2.37-2.56,3.36-5.36,3.57-10.2.24-5.36-.68-8.24-3.53-11.08-1.58-1.57-4.01-2.94-6.6-3.72-1.43-.43-5.73-.99-9.59-1.25-1.23-.08-2.66-.21-3.17-.29-.65-.09-.97-.03-1.04.2ZM279.18,424.13c-.27.06-.59.2-.71.31-.22.21-2.18,16.22-2.01,16.4.05.05,2.53-.48,5.52-1.18,2.98-.71,5.61-1.28,5.84-1.28.23,0,.49-.11.58-.25.09-.14-.85-1.85-2.07-3.8-5.16-8.2-6.32-10.02-6.48-10.16-.09-.08-.39-.1-.66-.04ZM216.19,426.47c-.19.61-1.97,23.85-1.84,23.98.07.07,1.42.25,3.01.4,3.57.34,5.32.07,7.89-1.19,4.11-2.02,6.49-6.13,6.49-11.19,0-4.73-2.72-9.12-6.73-10.86-2.27-.99-8.62-1.81-8.82-1.14ZM218.2,429.35c-.07.38-.19,1.64-.26,2.8s-.38,5.28-.68,9.15c-.3,3.87-.47,7.11-.36,7.22.1.1,1.33.19,2.72.19,2.33,0,2.67-.06,4.19-.78,1.87-.89,3.65-2.5,4.43-4.03,1.99-3.89,1.5-9.04-1.13-11.97-1.77-1.97-4.82-3.26-7.69-3.26-.99,0-1.1.06-1.22.69ZM279.96,429.18c-.24.74-.96,8.47-.8,8.63.13.13,3.39-.52,5.46-1.09.52-.14.69.2-2.31-4.56-2.08-3.3-2.19-3.45-2.35-2.97ZM312.43,434.26c-.48.19-2.16.82-3.74,1.4-1.57.58-2.96,1.15-3.09,1.25-.13.11-.06.64.17,1.26.22.59.87,2.36,1.45,3.93.58,1.57,1.09,2.91,1.13,2.96.04.05,1.91-.6,4.15-1.45l4.07-1.55-1.52-4.08c-.83-2.25-1.57-4.08-1.64-4.08-.07,0-.52.16-1,.35ZM310.56,437.4c-.69.27-1.49.59-1.79.72l-.54.23.64,1.69c.35.93.73,1.79.84,1.92.12.13.99-.07,2.09-.46,2.11-.77,2.03-.54,1.01-3.05-.32-.78-.68-1.45-.79-1.48s-.77.16-1.46.43Z"/>
      <g>
        <path class="d" d="M578.59,364.88c-.44,10.5,5.49,13.53,15.2,13.53,4.52,0,9.94-1.18,12.6-5.11,2.3-3.32,2.97-7.83,2.97-12.35v-23.52c0-4.29-1.34-4.96-5.86-4.96l-1.18-.07v-2.22c2.97.22,5.94.37,8.91.37s5.92-.14,8.81-.37v2.22l-1.18.07c-4.67,0-6.08.66-6.08,4.96v27.28c0,4.07-1.04,7.25-3.27,10.79-1.49,2.35-5.05,5.03-7.71,5.92-3.25.98-6.62,1.5-10.01,1.54-6.75,0-14.82-1.03-18.38-7.61-1.86-3.33-1.86-6-1.86-9.69v-26.61c0-5.77.07-6.29-7.04-6.66v-2.22c3.34.22,6.82.37,10.46.37s7.12-.14,10.68-.37v2.22c-7.12.37-7.06.89-7.06,6.66v25.82h.01,0ZM768.92,374.19v-36.75c0-4.29-1.34-4.96-5.86-4.96l-1.18-.07v-2.22c2.97.22,5.94.37,8.91.37s5.92-.14,8.81-.37v2.22l-1.18.07c-4.67,0-6.08.66-6.08,4.96v42.81l.22,2.74-5.87-1.03-35.81-43.4v36.08c0,4.29,1.42,4.97,6.08,4.97l1.2.06v2.23c-2.9-.22-5.86-.38-8.83-.38s-5.94.15-8.9.38v-2.23l1.2-.06c4.51,0,5.86-.68,5.86-4.97v-37.19c0-4.29-1.2-4.96-5.35-5.02h-1.05v-2.22c2.16.22,4.23.37,6.45.37s4.23-.14,6.39-.37l34.98,43.99h0ZM895.85,373.01c0,5.76-.08,6.29,7.04,6.65v2.23c-3.55-.24-7.11-.37-10.68-.38-3.62,0-7.12.15-10.45.38v-2.23c7.12-.35,7.04-.89,7.04-6.65v-33.93c0-5.77.08-6.29-7.04-6.66v-2.22c3.33.22,6.82.37,10.45.37s7.12-.14,10.68-.37v2.22c-7.12.37-7.04.89-7.04,6.66v33.93ZM1010.55,337.37c-1.63-3.99-1.03-4.29-5.11-4.88l-1.4-.07v-2.22c3.25.22,6.51.37,9.85.37s6.6-.14,9.87-.37v2.22c-7.12-.14-6.67,1.26-6.15,2.74l2.82,8.2,11.57,29.22,9.72-24.11,3.19-8.94c1.49-4.13,3.78-7.38-5.11-7.09v-2.22c2.67.22,5.27.37,8,.37s5.35-.14,8-.37v2.22c-4.75-.28-4.88,2.44-6.22,5.7l-12.39,30.39-5.27,13.67h-3.7l-1.63-4.81-2.6-6.72-13.42-33.29h0ZM1171.6,371.75c0,2.67.08,4.43.38,6.36,2.75.37,6.52.37,10.08.37,4.01,0,8.08-.14,11.93-1.26.37-1.11.74-2.44.89-3.78l.67-4.06h2.45c-.3,1.55-.74,3.63-.74,6v6.13c-2.75.38-7.71.3-12.31.38-4.45-.24-8.9-.37-13.35-.38-4.52,0-8.89.15-13.41.38v-2.23c3.7-.14,6.37-1.69,6.37-6.65v-33.93c0-5.77.07-6.29-7.04-6.66v-2.22c4.52.22,8.97.37,13.57.37s9.12-.14,13.57-.37c4.67.09,9.79,0,12.31.37-.76,2.32-1.16,4.74-1.18,7.18,0,1.55-.23,2.81-.23,4.35h-2.3c-.08-2.44-.42-4.87-1.03-7.24-3.56-1.11-7.35-1.24-11.05-1.24-3.27,0-6.75,0-9.2.37-.3,1.83-.38,3.54-.38,6.13v13.83c16.17.15,17.21,1.05,17.29-6.21h2.44v17.07h-2.43c0-8.35-.53-7.9-17.29-7.32v14.27h0ZM1308.47,339.07c0-5.77.07-6.29-7.04-6.66v-2.22c4.16.22,8.45.37,12.82.37s8.68-.14,12.98-.37c10.23-.51,14.97,5.02,14.97,11.25,0,8.05-7.25,12.87-14.46,14.27l16.83,21.88c1.18,1.41,2.74,1.85,4.23,2.06v2.23c-1.67-.24-3.36-.37-5.05-.38-1.69,0-3.33.15-5.03.38-1.18-1.55-2-2.88-3.05-4.13l-17.63-22.63.3-1.1c2.3.14,4.6.07,6.81-.3,5.19-.89,9.64-4.9,9.64-10.37,0-7.98-5.92-10.34-11.41-10.34-2.58,0-5.4.37-7.42.98-.43,1.24-.43,2.8-.43,5.09v33.93c0,5.76-.09,6.29,7.03,6.65v2.23c-3.55-.22-7.03-.38-10.67-.38s-7.12.15-10.45.38v-2.23c7.11-.35,7.04-.89,7.04-6.65v-33.93h0ZM1478.2,342.63c0-2.82,0-4.74-.75-5.92-2-3.09-7.27-4.29-10.75-4.29-6.08,0-11.28,4.22-11.28,10.58,0,16.03,29.52,2.72,29.52,21.29,0,12.64-11.34,18.7-22.41,18.7-4.44,0-8.59-1.1-12.66-2.8.3-2.82.43-6.36.51-9.25v-2.07h2.51v3.48c0,1.63.15,3.03,1.05,3.84,2.98,2.58,7.7,3.42,11.49,3.42,6.69,0,13.21-3.92,13.21-11.25,0-17.89-29.36-1.18-29.36-22.69,0-10.14,8.6-16.56,18.16-16.56,5.05,0,9.72,1.61,14.39,3.39-.22,1.18-.52,2.37-.58,3.55-.17,2.22-.46,4.36-.53,6.59h-2.51s0,0,0,0ZM1601.19,373.01c0,5.76-.06,6.29,7.07,6.65v2.23c-3.56-.24-7.12-.37-10.68-.38-3.64,0-7.12.15-10.47.38v-2.23c7.12-.35,7.04-.89,7.04-6.65v-33.93c0-5.77.09-6.29-7.04-6.66v-2.22c3.34.22,6.83.37,10.47.37s7.11-.14,10.68-.37v2.22c-7.12.37-7.07.89-7.07,6.66v33.93ZM1727.91,341.36c-.07-2.81-.07-5.16-.3-7.38l-11.41.35c-1.55.09-2.46.3-2.59,2.23-.3,1.76-.75,3.7-.82,5.69h-2.23c0-1.39,0-2.74-.07-4.13-.07-2.59-.14-5.18-.37-7.92,7.04.22,14.08.1,21.35.1s14.24.13,21.43-.1c-.21,2.74-.3,5.32-.38,7.92-.07,1.39-.07,2.74-.07,4.13h-2.22c-.07-1.99-.52-3.92-.82-5.69-.15-1.94-1.05-2.15-2.59-2.23l-11.57-.35c-.22,2.22-.22,4.57-.28,7.38v31.65c0,5.76-.09,6.29,7.04,6.65v2.23c-3.57-.22-7.04-.38-10.68-.38s-7.12.15-10.45.38v-2.23c7.11-.35,7.04-.89,7.04-6.65v-31.65ZM1879.76,356.3l7.64-12.06c2.82-4.72,5.56-9.31,8.01-14.04h5.92v1.1c-6.22,7.18-15.2,19.68-18.23,26.26-.76,1.75-1.12,3.64-1.05,5.55v9.9c0,5.76-.07,6.29,7.04,6.65v2.23c-3.56-.24-7.12-.37-10.68-.38-3.63,0-7.11.15-10.44.38v-2.23c7.12-.35,7.04-.89,7.04-6.65v-10.86c0-.59,0-1.48-.37-2.3l-8.9-15.52c-2.46-4.22-6.97-11.46-12.23-10.88v-2.15l7.86-1.54c2.15-.37,3.26.89,4.51,2.43,1.18,1.55,2.23,3.12,3.27,4.81l10.59,19.29h0ZM1005.73,131.89c0-23.07.31-25.15-28.16-26.63v-8.86c16.6.89,33.81,1.48,51.3,1.48s34.69-.59,51.9-1.48c40.94-2.07,59.91,20.1,59.91,44.95,0,32.24-29.06,51.46-57.83,57.07l67.31,87.54c4.75,5.61,10.97,7.38,16.9,8.27v8.88c-6.68-.95-13.42-1.44-20.16-1.48-6.83,0-13.35.59-20.17,1.48-4.74-6.21-8-11.53-12.16-16.56l-70.58-90.48,1.18-4.44c9.2.59,18.38.3,27.29-1.18,20.77-3.55,38.56-19.52,38.56-41.41,0-31.92-23.74-41.39-45.68-41.39-10.39,0-21.66,1.47-29.65,3.84-1.79,5.03-1.79,11.25-1.79,20.42v135.73c0,23.07-.3,25.13,28.18,26.61v8.88c-14.22-.94-28.46-1.44-42.71-1.48-13.95.03-27.89.52-41.81,1.48v-8.88c28.47-1.48,28.16-3.54,28.16-26.61v-135.74ZM1364.89,272.35V125.38c0-17.15-5.33-19.81-23.42-19.81l-4.74-.3v-8.86c11.87.89,23.72,1.48,35.58,1.48s23.73-.59,35.29-1.48v8.86l-4.74.3c-18.68,0-24.32,2.66-24.32,19.81v171.23l.89,10.94-23.42-4.13-143.26-173.6v144.32c0,17.16,5.64,19.81,24.33,19.81l4.74.3v8.88c-11.74-.94-23.51-1.44-35.29-1.48-11.88,0-23.73.59-35.59,1.48v-8.88l4.74-.3c18.09,0,23.43-2.65,23.43-19.81V125.38c0-17.15-4.75-19.81-21.36-20.11h-4.16v-8.86c8.61.89,16.91,1.48,25.82,1.48s16.9-.59,25.51-1.48l139.97,175.95h0Z"/>
        <path class="d" d="M977.94,193.1c0,63.58-49.82,114.44-114.77,114.44-60.21,0-105.29-41.39-105.29-108.82,0-60.33,42.71-107.65,111.52-106.76,63.45,0,108.54,35.48,108.54,101.14ZM946.21,202.27c0-58.55-26.39-97.59-81.56-97.59-51.6,0-75.03,35.79-75.03,84.29,0,51.74,24.31,105.86,83.04,105.86,49.52-3.25,73.55-38.16,73.55-92.57h0ZM1469.54,262.6c0,10.64.3,17.75,1.48,25.43,10.98,1.48,26.1,1.48,40.34,1.48,16.02,0,32.33-.59,47.74-5.02,1.5-4.43,2.98-9.77,3.55-15.08l2.68-16.27h9.79c-1.2,6.21-2.98,14.49-2.98,23.94v24.55c-10.97,1.48-30.85,1.18-49.22,1.48-17.51-.89-35.3-1.48-53.39-1.48s-35.58.59-53.67,1.48v-8.88c14.83-.59,25.51-6.8,25.51-26.61v-135.73c0-23.07.3-25.15-28.17-26.63v-8.85c18.09.89,35.88,1.48,54.26,1.48s36.47-.59,54.28-1.48c18.68.3,39.15,0,49.22,1.48-3.26,9.75-4.44,19.22-4.74,28.68,0,6.22-.89,11.25-.89,17.45h-9.2c-.3-11.52-2.07-19.81-4.15-28.97-14.24-4.44-29.36-5.03-44.19-5.03-13.05,0-26.99,0-36.78,1.47-1.18,7.4-1.48,14.2-1.48,24.55v55.31c64.65.59,68.79,4.13,69.1-24.85h9.78v68.32h-9.78c0-33.42-2.07-31.64-69.1-29.26v57.06h0ZM1638.96,277.08l.89,10.95c12.46,1.48,27.58,1.48,41.82,1.48,16.02,0,32.34-.59,47.74-5.02,1.18-2.67,2.09-5.92,2.98-9.47l6.81-24.84,9.48.59c-.89,4.13-1.76,11.84-2.95,19.81l-3.27,31.05c-9.49,1.48-28.45,1.18-45.96,1.48-16.89-.95-33.8-1.44-50.71-1.48-17.21,0-33.81.59-51.01,1.48v-8.88c13.94-2.37,16.02-10.94,16.02-34.59v-127.74c0-23.07.3-25.15-28.17-26.63v-8.86c13.35.89,27.28,1.48,41.82,1.48s28.47-.59,42.71-1.48v8.86c-28.47,1.48-28.17,3.55-28.17,26.63v145.18h0ZM1797.41,277.08l.89,10.95c12.46,1.48,27.58,1.48,41.82,1.48,16.02,0,32.33-.59,47.74-5.02,1.18-2.67,2.07-5.92,2.96-9.47l6.83-24.84,9.49.59c-.9,4.13-1.79,11.84-2.98,19.81l-3.26,31.05c-9.49,1.48-28.47,1.18-45.98,1.48-16.59-.89-33.93-1.05-51.14-1.05s-33.37.15-50.57,1.05v-8.88c13.94-2.37,16.02-10.94,16.02-34.59v-127.74c0-23.07.3-25.15-28.17-26.63v-8.86c13.34.89,27.28,1.48,41.82,1.48s28.47-.59,42.71-1.48v8.86c-28.47,1.48-28.17,3.55-28.17,26.63v145.18h0ZM742.81,290.1c-18.67,10.66-48.33,17.44-67.01,17.44-65.54,0-120.11-38.43-120.11-108.52s55.46-107.06,114.18-107.06c26.09,0,52.21,6.21,77.12,13.31-2.97,14.79-4.75,29.57-6.53,44.37h-8.62c-.88-18.94,3.86-25.73-13.63-34.31-12.17-5.92-26.4-10.95-47.76-10.95-48.93,0-82.74,34.6-82.74,88.13,0,59.14,38.55,99.94,98.17,99.94,21.35,0,42.4-6.8,60.2-18.62l2.67,2.95-5.93,13.33h0Z"/>
      </g>
    </g>
  </g>
</svg>