<svg width="86" height="23" viewBox="0 0 86 23" fill="none" xmlns="http://www.w3.org/2000/svg">
<path d="M9.46322 0H0V22.6316L9.46322 0Z" fill="#757575"/>
<path d="M16.1172 0H25.5681V22.6316L16.1172 0Z" fill="#757575"/>
<path d="M12.7929 8.34131L18.8161 22.6317H14.8644L13.0642 18.082H8.65625L12.7929 8.34131Z" fill="#757575"/>
<path d="M41.0092 14.3923L42.125 17.592C42.162 17.6721 42.2175 17.7091 42.3162 17.7091H44.4616C44.5787 17.7091 44.5972 17.6536 44.5787 17.5365L40.1461 5.22504C40.1276 5.12641 40.1091 5.10791 40.0105 5.10791H37.3472C37.2732 5.10791 37.2301 5.16339 37.2301 5.24354C37.1931 5.89086 37.1376 6.08814 37.0574 6.27925L33.1057 17.518C33.0872 17.6536 33.1304 17.7091 33.2413 17.7091H35.1586C35.2758 17.7091 35.3313 17.6721 35.3744 17.555L36.4286 14.3923H41.0092ZM37.039 12.3024C37.6185 10.5516 38.3829 8.30753 38.6912 7.02521H38.7097C39.0919 8.36918 39.992 11.0324 40.3989 12.3024H37.039Z" fill="#757575"/>
<path d="M50.2745 17.9002C51.4274 17.9002 52.6542 17.6906 53.8995 17.1543C53.9981 17.1173 54.0166 17.0741 54.0166 16.9816C53.9796 16.6364 53.9365 16.137 53.9365 15.7548V4.16468C53.9365 4.0907 53.9365 4.05371 53.844 4.05371H51.7541C51.674 4.05371 51.637 4.0907 51.637 4.18934V8.11642C51.3102 8.07943 51.0821 8.06094 50.8109 8.06094C47.4386 8.06094 45.3672 10.2865 45.3672 13.0669C45.3672 16.2912 47.4941 17.9002 50.2745 17.9002V17.9002ZM51.637 15.7548C51.2917 15.8658 50.9095 15.9089 50.5211 15.9089C48.9922 15.9089 47.7407 15.0458 47.7407 12.9498C47.7407 11.0941 49.0292 9.99673 50.7369 9.99673C51.0821 9.99673 51.3842 10.0337 51.637 10.1324V15.7548Z" fill="#757575"/>
<path d="M60.692 8.06079C57.8129 8.06079 56.0312 10.2678 56.0312 12.9928C56.0312 15.4279 57.4492 17.9001 60.6488 17.9001C63.3552 17.9001 65.254 15.9088 65.254 12.9311C65.254 10.3048 63.645 8.06079 60.692 8.06079ZM60.5748 9.99659C62.2024 9.99659 62.8929 11.396 62.8929 12.9928C62.8929 14.9656 61.8756 15.9458 60.692 15.9458C59.2309 15.9458 58.3678 14.719 58.3678 12.9496C58.3678 11.1309 59.2863 9.99659 60.5748 9.99659V9.99659Z" fill="#757575"/>
<path d="M67.4091 4.05371C67.3289 4.05371 67.2734 4.0907 67.2734 4.18934V17.3084C67.2734 17.3639 67.3289 17.4625 67.4091 17.481C68.3276 17.7646 69.2894 17.9002 70.2819 17.9002C73.124 17.9002 75.8859 16.137 75.8859 12.586C75.8859 10.0152 74.1227 8.06094 71.3608 8.06094C70.7258 8.06094 70.134 8.15958 69.6161 8.3322L69.5915 4.20783C69.5915 4.07221 69.5545 4.05371 69.4188 4.05371H67.4091ZM73.5247 12.8203C73.5247 14.9472 72.0698 15.9459 70.4977 15.9459C70.171 15.9459 69.8812 15.9274 69.6161 15.8473V10.2495C69.9182 10.1324 70.2819 10.0337 70.9539 10.0337C72.4705 10.0337 73.5247 10.9955 73.5247 12.8203Z" fill="#757575"/>
<path d="M83.6859 13.5106C84.623 13.5106 85.3936 13.4921 85.6587 13.4305C85.7573 13.412 85.7943 13.375 85.8128 13.2948C85.8683 13.0852 85.893 12.6475 85.893 12.1112C85.893 10.2863 84.7956 8.06079 81.9597 8.06079C79.0622 8.06079 77.4531 10.422 77.4531 13.0852C77.4531 15.4464 78.6984 17.9001 82.1878 17.9001C83.4948 17.9001 84.3394 17.6905 85.0668 17.3452C85.1408 17.3082 85.1778 17.2466 85.1778 17.1356V15.5389C85.1778 15.4464 85.1223 15.4279 85.0668 15.4649C84.3394 15.7732 83.5503 15.9273 82.6872 15.9273C80.7329 15.9273 79.8451 14.8484 79.7896 13.5106H83.6859ZM79.7896 11.8584C79.9438 10.9213 80.5356 9.90411 81.8611 9.90411C83.3222 9.90411 83.7044 11.1309 83.7044 11.6858C83.7044 11.7043 83.7044 11.7844 83.7044 11.8399C83.6242 11.8584 83.3776 11.8584 82.6502 11.8584H79.7896Z" fill="#757575"/>
</svg>
