<svg width="81" height="25" viewBox="0 0 81 25" fill="none" xmlns="http://www.w3.org/2000/svg">
<g clip-path="url(#clip0_70_851)">
<path d="M50.238 19.0994C45.5366 22.5647 38.7222 24.4136 32.8551 24.4136C24.6285 24.4136 17.2224 21.3709 11.6195 16.3103C11.1792 15.9123 11.5737 15.37 12.1019 15.6799C18.1486 19.198 25.6251 21.3145 33.3481 21.3145C38.5567 21.3145 44.2864 20.2369 49.5548 18.0007C50.3507 17.6626 51.0163 18.5219 50.238 19.0994Z" fill="#757575"/>
<path d="M52.1977 16.8631C51.599 16.0953 48.2253 16.5003 46.711 16.6799C46.2496 16.7363 46.1792 16.3348 46.5947 16.046C49.2818 14.1549 53.6909 14.7008 54.2051 15.3347C54.7192 15.9721 54.0712 20.3918 51.5462 22.5012C51.1588 22.8252 50.7891 22.6527 50.9616 22.223C51.5286 20.8073 52.7999 17.6343 52.1977 16.8631Z" fill="#757575"/>
<path d="M46.8121 2.6955V0.857193C46.8121 0.578982 47.0234 0.392334 47.277 0.392334H55.5071C55.7712 0.392334 55.9826 0.582504 55.9826 0.857193V2.43138C55.979 2.6955 55.7572 3.04063 55.3627 3.58648L51.098 9.67544C52.6827 9.63671 54.3555 9.87266 55.7924 10.6826C56.1164 10.8658 56.2044 11.1334 56.2291 11.3975V13.3591C56.2291 13.6268 55.9332 13.9402 55.6233 13.7782C53.0913 12.4505 49.7281 12.3061 46.9283 13.7923C46.6431 13.9472 46.3438 13.6373 46.3438 13.3697V11.5067C46.3438 11.2074 46.3473 10.6967 46.6466 10.2424L51.5875 3.15684H47.2876C47.0234 3.15684 46.8121 2.97019 46.8121 2.6955Z" fill="#757575"/>
<path d="M16.7949 14.1654H14.291C14.0515 14.1478 13.8614 13.9682 13.8438 13.7393V0.888759C13.8438 0.631677 14.0586 0.427419 14.3262 0.427419H16.6611C16.9041 0.437977 17.0978 0.624631 17.1154 0.857061V2.5369H17.1612C17.7704 0.913408 18.9149 0.15625 20.4574 0.15625C22.0246 0.15625 23.0036 0.913408 23.7079 2.5369C24.3137 0.913408 25.6906 0.15625 27.1662 0.15625C28.2157 0.15625 29.3637 0.589415 30.0645 1.56139C30.8569 2.64255 30.6949 4.21321 30.6949 5.59018L30.6914 13.7006C30.6914 13.9577 30.4766 14.1654 30.2089 14.1654H27.7085C27.4585 14.1478 27.2578 13.9471 27.2578 13.7006V6.88967C27.2578 6.34734 27.3071 4.99502 27.1873 4.48085C27.0007 3.61805 26.4408 3.37505 25.7153 3.37505C25.1096 3.37505 24.4757 3.78004 24.2186 4.42803C23.9615 5.07602 23.9861 6.16069 23.9861 6.88967V13.7006C23.9861 13.9577 23.7713 14.1654 23.5037 14.1654H21.0033C20.7497 14.1478 20.5525 13.9471 20.5525 13.7006L20.549 6.88967C20.549 5.45636 20.7849 3.34688 19.0065 3.34688C17.2069 3.34688 17.2774 5.40353 17.2774 6.88967V13.7006C17.2774 13.9577 17.0626 14.1654 16.7949 14.1654Z" fill="#757575"/>
<path d="M63.0722 0.15625C66.7875 0.15625 68.7984 3.34688 68.7984 7.40384C68.7984 11.3235 66.5762 14.4331 63.0722 14.4331C59.4237 14.4331 57.4375 11.2425 57.4375 7.26649C57.4375 3.26588 59.4484 0.15625 63.0722 0.15625ZM63.0933 2.77989C61.2479 2.77989 61.1317 5.29436 61.1317 6.8615C61.1317 8.43217 61.1071 11.7848 63.0722 11.7848C65.0126 11.7848 65.1042 9.08015 65.1042 7.43201C65.1042 6.34734 65.0584 5.05137 64.7309 4.02304C64.4491 3.12854 63.8892 2.77989 63.0933 2.77989Z" fill="#757575"/>
<path d="M73.6117 14.1654H71.1184C70.8683 14.1478 70.6676 13.9471 70.6676 13.7006L70.6641 0.846496C70.6852 0.610544 70.893 0.427419 71.1465 0.427419H73.4673C73.6856 0.437977 73.8653 0.585894 73.9146 0.786629V2.75172H73.9603C74.6612 0.994407 75.6437 0.15625 77.3728 0.15625C78.4962 0.15625 79.5915 0.561242 80.2958 1.67057C80.9508 2.69889 80.9508 4.42803 80.9508 5.67118V13.7604C80.9227 13.9858 80.7149 14.1654 80.4684 14.1654H77.9574C77.7285 14.1478 77.5384 13.9788 77.5137 13.7604V6.7805C77.5137 5.37536 77.6757 3.3187 75.9466 3.3187C75.3373 3.3187 74.7774 3.72722 74.4992 4.34703C74.147 5.13236 74.1012 5.91417 74.1012 6.7805V13.7006C74.0977 13.9577 73.8793 14.1654 73.6117 14.1654Z" fill="#757575"/>
<path d="M40.2529 8.02738V7.48505C38.4428 7.48505 36.5305 7.87243 36.5305 10.0066C36.5305 11.0877 37.0904 11.8202 38.0518 11.8202C38.7562 11.8202 39.3866 11.3871 39.7845 10.6827C40.2775 9.81639 40.2529 9.00288 40.2529 8.02738ZM42.7779 14.1304C42.6124 14.2783 42.3729 14.2889 42.1863 14.1903C41.3552 13.5001 41.2073 13.1796 40.7494 12.521C39.376 13.9227 38.404 14.3417 36.6221 14.3417C34.5161 14.3417 32.875 13.0422 32.875 10.4397C32.875 8.40772 33.9773 7.02371 35.5444 6.34755C36.9038 5.74887 38.802 5.64322 40.2529 5.4777V5.15371C40.2529 4.55854 40.2987 3.85421 39.95 3.34005C39.6436 2.87871 39.059 2.68854 38.5449 2.68854C37.5905 2.68854 36.7383 3.17805 36.5305 4.19229C36.4882 4.41768 36.3227 4.63954 36.0973 4.65011L33.6674 4.3895C33.4631 4.34372 33.2377 4.1782 33.2941 3.86478C33.854 0.920665 36.5129 0.0332031 38.8935 0.0332031C40.112 0.0332031 41.7038 0.357196 42.6652 1.27987C43.8837 2.41737 43.7675 3.93521 43.7675 5.58687V9.48888C43.7675 10.6616 44.2535 11.1758 44.7113 11.8097C44.8733 12.035 44.9085 12.3062 44.7043 12.4752C44.1936 12.9014 43.285 13.6937 42.785 14.1375L42.7779 14.1304Z" fill="#757575"/>
<path d="M7.42476 8.02738V7.48505C5.61463 7.48505 3.70236 7.87243 3.70236 10.0066C3.70236 11.0877 4.26231 11.8202 5.22372 11.8202C5.92805 11.8202 6.55843 11.3871 6.95638 10.6827C7.44941 9.81639 7.42476 9.00288 7.42476 8.02738ZM9.9498 14.1304C9.78428 14.2783 9.5448 14.2889 9.35816 14.1903C8.52705 13.5001 8.37913 13.1796 7.92132 12.521C6.54787 13.9227 5.57589 14.3417 3.79393 14.3417C1.68797 14.3417 0.046875 13.0422 0.046875 10.4397C0.046875 8.40772 1.14916 7.02371 2.7163 6.34755C4.07566 5.74887 5.97384 5.64322 7.42476 5.4777V5.15371C7.42476 4.55854 7.47055 3.85421 7.1219 3.34005C6.81551 2.87871 6.23092 2.68854 5.71675 2.68854C4.76239 2.68854 3.91014 3.17805 3.70236 4.19229C3.6601 4.41768 3.49458 4.63954 3.2692 4.65011L0.83925 4.3895C0.634993 4.34372 0.409606 4.1782 0.465953 3.86478C1.0259 0.920665 3.68475 0.0332031 6.0654 0.0332031C7.2839 0.0332031 8.87569 0.357196 9.8371 1.27987C11.0556 2.41737 10.9394 3.93521 10.9394 5.58687V9.48888C10.9394 10.6616 11.4254 11.1758 11.8832 11.8097C12.0452 12.035 12.0804 12.3062 11.8761 12.4752C11.3655 12.9014 10.4569 13.6937 9.95684 14.1375L9.9498 14.1304Z" fill="#757575"/>
</g>
<defs>
<clipPath id="clip0_70_851">
<rect width="81" height="24.4478" fill="white"/>
</clipPath>
</defs>
</svg>
