<svg width="81" height="28" viewBox="0 0 81 28" fill="none" xmlns="http://www.w3.org/2000/svg">
<g clip-path="url(#clip0_70_828)">
<path d="M6.90507 6.7781C7.86569 6.73968 8.76484 7.00866 9.60251 7.42365C10.8782 8.05382 12.0694 8.02308 13.3451 7.41596C14.4364 6.90107 15.5968 6.59366 16.8341 6.69357C18.7477 6.84727 20.3615 7.57735 21.5911 9.08361C21.8063 9.3449 21.814 9.47554 21.5143 9.69072C20.1617 10.659 19.2472 11.9347 18.9628 13.5947C18.4864 16.3613 19.7621 18.8897 22.2674 20.1577C22.5364 20.296 22.5594 20.419 22.4672 20.6726C21.7371 22.7168 20.6305 24.5458 19.1934 26.1674C17.8255 27.7198 16.373 28.0425 14.4748 27.2049C13.1837 26.6285 11.885 26.3595 10.4863 26.7207C9.9637 26.859 9.47955 27.0819 8.98002 27.2817C7.21247 28.0041 6.02129 27.8043 4.70715 26.4133C2.40165 23.9772 0.949185 21.0876 0.295959 17.8061C-0.119032 15.7311 -0.172827 13.6639 0.541879 11.6427C1.43334 9.12972 3.13941 7.46976 5.79843 6.88569C6.01361 6.83958 6.22879 6.80885 6.44397 6.79348C6.59767 6.76274 6.75137 6.7781 6.90507 6.7781Z" fill="#757575"/>
<path d="M43.9035 21.6182C43.9035 22.6095 43.9035 23.6086 43.9035 24.5999C43.9035 25.4837 43.8958 26.3675 43.9111 27.2436C43.9111 27.4741 43.8574 27.5587 43.6114 27.551C43.1888 27.5356 42.7661 27.5279 42.3434 27.551C42.0053 27.574 41.89 27.4895 41.8977 27.1206C41.913 24.185 41.8977 21.2416 41.913 18.2982C41.9207 16.2925 41.8746 14.2867 41.8208 12.2809C41.8131 11.9735 41.89 11.8736 42.1974 11.8966C42.5048 11.9197 42.8122 11.9351 43.1196 11.8966C43.5499 11.8351 43.6729 12.0196 43.6575 12.4192C43.6499 12.8496 43.6883 13.2799 43.7113 13.718C43.8881 13.7103 43.9111 13.5796 43.9726 13.4951C45.817 10.9898 49.575 11.0359 51.3502 13.595C52.1111 14.694 52.4031 15.9389 52.4031 17.2608C52.4031 18.8592 52.0726 20.3578 51.0044 21.6182C49.7364 23.1091 47.5615 23.6624 45.7325 22.963C45.0024 22.6864 44.4184 22.2253 43.9035 21.6182ZM43.9035 17.6143C43.9265 18.2368 43.842 18.8669 44.0418 19.474C44.4337 20.696 45.5019 21.5644 46.7392 21.6489C48.1763 21.7488 49.3214 21.111 49.8978 19.8199C50.5203 18.4366 50.5664 16.9918 50.0899 15.5624C49.5904 14.0407 48.453 13.2415 46.9698 13.2722C45.6326 13.303 44.4875 14.2867 44.0495 15.7468C43.8574 16.3693 43.9342 16.9918 43.9035 17.6143Z" fill="#757575"/>
<path d="M56.2971 13.7485C56.4508 13.7178 56.4739 13.6025 56.5277 13.5257C58.4336 10.9051 62.3376 11.0434 64.0513 13.7946C64.9582 15.2548 65.1119 16.861 64.889 18.5209C64.6892 20.0041 64.1282 21.3183 62.9063 22.2405C61.4077 23.3702 59.7631 23.57 58.0263 22.8399C57.4115 22.5863 56.935 22.1406 56.5431 21.5642C56.4432 21.7179 56.4816 21.8639 56.4816 21.9945C56.4816 23.716 56.4739 25.4451 56.4893 27.1666C56.4893 27.4663 56.4201 27.5662 56.1127 27.5508C55.6516 27.5201 55.1905 27.5354 54.7294 27.5431C54.5526 27.5431 54.4681 27.497 54.4835 27.3049C54.4912 27.2127 54.4835 27.1281 54.4835 27.0359C54.4835 23.6084 54.4912 20.1886 54.4835 16.7611C54.4758 15.2702 54.4374 13.7716 54.3989 12.2807C54.3913 11.981 54.4681 11.8734 54.7755 11.8964C55.1213 11.9195 55.4672 11.9272 55.813 11.8964C56.1358 11.8657 56.228 11.9963 56.228 12.3037C56.228 12.7879 56.2741 13.2644 56.2971 13.7485ZM62.9677 17.422C62.9754 16.4998 62.8063 15.616 62.3299 14.8167C61.3769 13.1952 59.3327 12.7725 57.8649 13.8945C56.9888 14.5631 56.5584 15.4853 56.5046 16.5689C56.4662 17.2298 56.4893 17.8984 56.497 18.5593C56.497 19.958 57.4268 21.1876 58.7487 21.5565C60.1627 21.9484 61.5921 21.3874 62.3222 20.1425C62.8063 19.3048 62.9754 18.3826 62.9677 17.422Z" fill="#757575"/>
<path d="M33.8687 7.56221C34.1761 7.56221 34.4835 7.57758 34.7909 7.55453C35.0137 7.53916 35.0983 7.63138 35.1674 7.83119C36.8505 12.7803 38.5412 17.7295 40.2396 22.6786C40.3471 22.9783 40.2472 23.0245 39.9783 23.0091C39.5018 22.9937 39.033 22.986 38.5565 23.0091C38.2645 23.0245 38.1646 22.9015 38.0801 22.6479C37.6267 21.2646 37.1425 19.8967 36.6891 18.5134C36.5892 18.2136 36.4508 18.1291 36.1434 18.1291C34.5988 18.1445 33.0464 18.1445 31.5017 18.1291C31.1866 18.1291 31.0329 18.2136 30.933 18.5287C30.495 19.912 30.0185 21.2876 29.5728 22.6709C29.4959 22.9169 29.3883 23.0168 29.1193 23.0014C28.6736 22.9783 28.2202 22.9783 27.7745 23.0014C27.444 23.0168 27.421 22.9169 27.5209 22.6325C28.128 20.888 28.712 19.1358 29.3115 17.3837C30.3797 14.2328 31.4633 11.0819 32.5238 7.93109C32.6237 7.63906 32.7467 7.50842 33.0618 7.54684C33.3307 7.58527 33.5997 7.56221 33.8687 7.56221ZM33.8303 9.33745C33.7765 9.44504 33.738 9.49884 33.7227 9.55263C33.154 11.8428 32.3547 14.0637 31.5939 16.2924C31.5094 16.546 31.5785 16.5921 31.8168 16.5921C33.1309 16.5844 34.4451 16.5767 35.7669 16.5921C36.082 16.5921 36.1281 16.5229 36.0282 16.2309C35.6055 15.0397 35.2136 13.8409 34.8063 12.6497C34.4297 11.5815 34.13 10.4825 33.8303 9.33745Z" fill="#757575"/>
<path d="M77.0463 17.8217C75.8551 17.8217 74.664 17.8294 73.4805 17.814C73.2269 17.814 73.1577 17.8909 73.1654 18.1445C73.2269 20.1272 74.5948 21.5412 76.5698 21.6488C77.6688 21.7103 78.7447 21.6104 79.7745 21.2031C79.9743 21.1263 80.0665 21.1416 80.1049 21.3799C80.1511 21.6565 80.2202 21.9332 80.3048 22.1945C80.397 22.4711 80.3201 22.6018 80.0435 22.694C78.6064 23.1935 77.1308 23.3626 75.6246 23.1551C74.5179 23.0014 73.5419 22.5634 72.7427 21.7564C71.882 20.888 71.4363 19.8121 71.2979 18.6133C71.1212 17.107 71.2979 15.6545 72.0203 14.302C73.1577 12.1732 75.5554 11.1665 77.8609 11.8658C79.5977 12.3884 80.4354 13.6949 80.8427 15.3548C81.0041 16.008 81.0195 16.669 81.0041 17.3375C80.9964 17.6911 80.9119 17.8524 80.4969 17.8371C79.3441 17.791 78.1991 17.814 77.0463 17.8217ZM76.078 16.3769C76.8081 16.3769 77.5382 16.3769 78.2605 16.3769C79.1289 16.3769 79.1443 16.3769 78.9829 15.5162C78.7831 14.4634 78.3067 13.5949 77.2154 13.2645C76.1549 12.9417 75.1635 13.0954 74.3335 13.8793C73.711 14.471 73.3959 15.2319 73.2192 16.0618C73.1577 16.3462 73.2653 16.3846 73.5035 16.3846C74.3719 16.3692 75.225 16.3769 76.078 16.3769Z" fill="#757575"/>
<path d="M69.0933 14.8552C69.0933 17.4527 69.0856 20.0425 69.101 22.6401C69.101 22.9398 69.0242 23.0397 68.7168 23.0243C68.2864 23.0013 67.8484 23.0013 67.4103 23.0243C67.1337 23.0397 67.0568 22.9321 67.0722 22.6708C67.0952 22.3557 67.0799 22.033 67.0799 21.7102C67.0799 16.8686 67.0875 12.0194 67.0722 7.17784C67.0722 6.82433 67.1644 6.71674 67.5179 6.73979C67.9406 6.77053 68.3633 6.77053 68.7859 6.73979C69.0933 6.71674 69.101 6.87812 69.101 7.10867C69.0933 9.46029 69.101 11.8119 69.101 14.1635C69.0933 14.3941 69.0933 14.6246 69.0933 14.8552Z" fill="#757575"/>
<path d="M16.836 0.714582C16.7438 3.266 14.9148 5.6253 12.5478 6.24779C12.225 6.33232 11.8946 6.37075 11.5641 6.38612C11.3336 6.3938 11.249 6.30927 11.2337 6.0864C11.2029 5.53308 11.2721 4.98745 11.4412 4.45718C12.1866 2.14399 13.7467 0.676157 16.106 0.0844109C16.8591 -0.0923444 16.8668 -0.0616043 16.836 0.714582Z" fill="#757575"/>
</g>
<defs>
<clipPath id="clip0_70_828">
<rect width="81" height="27.6737" fill="white"/>
</clipPath>
</defs>
</svg>
