<svg width="81" height="27" viewBox="0 0 81 27" fill="none" xmlns="http://www.w3.org/2000/svg">
<path d="M15.2647 9.46515C16.7915 9.46515 18.3183 9.46835 19.8451 9.46196C19.976 9.46196 20.0271 9.49071 20.0463 9.62806C20.1485 10.3627 20.1773 11.0974 20.1358 11.8384C20.0846 12.7455 19.9313 13.6303 19.6598 14.4959C18.9699 16.6903 17.5549 18.2905 15.6001 19.4404C14.4757 20.1016 13.246 20.453 11.9524 20.6031C10.4384 20.7788 8.9499 20.6861 7.48699 20.2453C3.78499 19.1274 0.855969 16.0323 0.182007 12.2153C-0.485566 8.43345 0.696263 5.24571 3.51349 2.66485C4.88696 1.40636 6.50958 0.585467 8.33663 0.230919C11.7895 -0.439849 14.8622 0.336325 17.475 2.74789C17.5581 2.82455 17.5741 2.86608 17.4846 2.95551C16.8809 3.54962 16.2836 4.14692 15.6895 4.74742C15.6161 4.82089 15.5745 4.83686 15.4883 4.757C14.4374 3.79876 13.2236 3.15674 11.8118 2.93635C9.36833 2.55625 7.19952 3.15674 5.38525 4.8656C4.12676 6.04743 3.37933 7.51354 3.15255 9.21921C2.81397 11.7841 3.53585 14.02 5.40441 15.8343C6.54791 16.9458 7.93417 17.591 9.52165 17.7891C10.8792 17.9584 12.2111 17.8338 13.4792 17.3036C14.7089 16.7893 15.7342 16.0035 16.4306 14.8473C16.8713 14.1126 17.0885 13.2981 17.2227 12.4581C17.2451 12.3143 17.1971 12.292 17.0662 12.2952C14.9389 12.2984 12.8084 12.2984 10.6811 12.3047C10.5214 12.3047 10.4799 12.2664 10.4799 12.1035C10.4895 11.2794 10.4863 10.4553 10.4799 9.63125C10.4799 9.4971 10.515 9.46515 10.646 9.46515C12.1919 9.46515 13.7283 9.46515 15.2647 9.46515Z" fill="#757575"/>
<path d="M62.9031 14.1094C62.9031 16.1026 62.9222 18.0957 62.8967 20.0888C62.8775 21.4655 62.5996 22.7879 61.865 23.9825C61.108 25.2122 60.0092 25.998 58.6261 26.3749C57.1345 26.7805 55.6492 26.7805 54.1959 26.2056C52.5764 25.5604 51.4393 24.4041 50.7111 22.8326C50.6727 22.7495 50.6919 22.7144 50.7717 22.6825C51.5511 22.3599 52.3337 22.0372 53.1099 21.7083C53.2312 21.6571 53.2408 21.7338 53.2759 21.8041C53.688 22.6601 54.2917 23.3277 55.1637 23.7365C56.3615 24.2955 58.23 24.0623 59.1531 23.0594C59.6387 22.5323 59.9006 21.9095 60.0347 21.2164C60.1593 20.568 60.1242 19.9132 60.1274 19.2615C60.1274 19.2328 60.1369 19.1945 60.1018 19.1753C60.0635 19.1561 60.0283 19.1721 60.0028 19.2009C59.9804 19.2232 59.9613 19.2488 59.9389 19.2711C59.2202 20.0537 58.3195 20.5041 57.2782 20.6159C54.6846 20.9033 52.7106 19.8205 51.2541 17.7379C50.4108 16.5338 50.069 15.1603 50.1425 13.6942C50.2926 10.7428 52.3369 8.27693 55.0199 7.56464C56.4477 7.18454 57.8212 7.30591 59.1116 8.0757C59.4278 8.26415 59.7121 8.49732 59.9613 8.77202C59.9996 8.81354 60.0347 8.87742 60.1018 8.84548C60.1625 8.81674 60.1306 8.74966 60.1306 8.70175C60.1337 8.43663 60.1369 8.17152 60.1306 7.90321C60.1274 7.8042 60.1529 7.76587 60.2615 7.76587C61.1016 7.76906 61.9416 7.77226 62.7849 7.76587C62.935 7.76587 62.9126 7.84572 62.9126 7.93516C62.9126 9.99218 62.9126 12.0492 62.9126 14.1062C62.9063 14.1094 62.9031 14.1094 62.9031 14.1094ZM60.335 14.0679C60.3318 13.231 60.1625 12.4517 59.7377 11.7394C59.1468 10.7524 58.2907 10.1231 57.1281 10.0145C55.8408 9.89316 54.7804 10.3691 53.9755 11.372C53.2248 12.3047 52.9725 13.3939 53.1035 14.5726C53.2344 15.732 53.7455 16.6871 54.6941 17.3834C56.205 18.495 58.2716 18.2267 59.4374 16.7669C60.0699 15.9748 60.3286 15.0549 60.335 14.0679Z" fill="#757575"/>
<path d="M35.7188 14.0267C35.7156 10.2736 38.6286 7.37017 42.4041 7.36378C46.1763 7.35739 49.0862 10.2545 49.0894 14.0204C49.0926 17.7735 46.1795 20.6833 42.4105 20.6865C38.6542 20.6929 35.7219 17.7735 35.7188 14.0267ZM46.1668 14.0331C46.17 13.4965 46.0805 12.9759 45.8953 12.4712C44.9466 9.88715 41.7109 9.1493 39.8009 11.0818C38.3347 12.5638 38.2549 15.2118 39.6316 16.7801C40.8932 18.2174 42.9471 18.4921 44.4866 17.4061C45.6429 16.5852 46.1348 15.4194 46.1668 14.0331Z" fill="#757575"/>
<path d="M27.979 7.36377C31.7545 7.36377 34.6579 10.2577 34.6611 14.0235C34.6643 17.7766 31.7449 20.6865 27.979 20.6865C24.2131 20.6865 21.2937 17.7734 21.2969 14.0235C21.3001 10.2577 24.2035 7.36377 27.979 7.36377ZM28.0046 18.0641C29.1129 18.0386 30.0775 17.6137 30.7898 16.7258C31.8279 15.4353 32.0068 13.9692 31.4446 12.4456C30.9272 11.0402 29.8795 10.1874 28.3783 10.0213C26.9728 9.86478 25.8134 10.3982 24.9893 11.5481C24.1908 12.6564 24.0438 13.9085 24.3792 15.2118C24.8072 16.8919 26.2957 18.0609 28.0046 18.0641Z" fill="#757575"/>
<path d="M75.1765 18.0577C76.7065 18.0609 77.7318 17.4444 78.508 16.3712C78.6038 16.2402 78.6581 16.2338 78.7891 16.3232C79.4471 16.7736 80.1114 17.2144 80.779 17.6488C80.8812 17.7159 80.8844 17.7574 80.8141 17.85C79.6227 19.4663 78.0544 20.4533 76.0421 20.6417C73.9883 20.8366 72.1708 20.2584 70.676 18.8019C69.6634 17.8149 69.0565 16.5979 68.8329 15.2085C68.571 13.5827 68.7818 12.0176 69.5868 10.5642C70.545 8.83939 72.0111 7.78852 73.9595 7.45314C76.4765 7.01874 78.7124 8.08238 80.0923 10.3247C80.4724 10.9379 80.7215 11.6087 80.9898 12.2731C81.0377 12.3913 80.9451 12.3817 80.8908 12.404C80.0028 12.7746 79.1149 13.1387 78.2269 13.506C76.2401 14.3269 74.2566 15.151 72.2666 15.9687C72.1357 16.023 72.1165 16.0645 72.1868 16.1891C72.6595 17.0291 73.3111 17.6456 74.2598 17.9139C74.6207 18.0193 74.9848 18.0545 75.1765 18.0577ZM71.6278 13.5891C71.6278 13.5699 71.6278 13.5891 71.6278 13.6114C71.6278 13.8222 71.6278 13.8222 71.8259 13.7392C72.6787 13.3846 73.5315 13.0333 74.3844 12.6787C75.4033 12.2571 76.4222 11.8291 77.4443 11.4107C77.5625 11.3628 77.5913 11.318 77.5242 11.2062C77.4507 11.0817 77.3836 10.9571 77.2846 10.8485C76.5532 10.0532 75.6269 9.80402 74.6016 9.99567C72.8639 10.3215 71.6693 11.7812 71.6278 13.5891Z" fill="#757575"/>
<path d="M67.4979 10.5321C67.4979 13.7167 67.498 16.898 67.5011 20.0826C67.5011 20.2455 67.4628 20.2838 67.2999 20.2806C66.4662 20.2711 65.6294 20.2742 64.7957 20.2774C64.6775 20.2774 64.6328 20.2583 64.6328 20.1241C64.636 13.7199 64.636 7.31565 64.6328 0.911416C64.6328 0.786844 64.6616 0.751709 64.7893 0.751709C65.6358 0.758097 66.4822 0.758097 67.3255 0.751709C67.4756 0.751709 67.4979 0.799621 67.4979 0.93058C67.4979 4.1343 67.4979 7.33162 67.4979 10.5321Z" fill="#757575"/>
</svg>
