<svg width="102" height="21" viewBox="0 0 102 21" fill="none" xmlns="http://www.w3.org/2000/svg">
<path d="M3.3341 13.5207C3.3341 14.6987 3.593 15.6044 3.93105 16.1516C4.37424 16.8683 5.03563 17.1725 5.70946 17.1725C6.57888 17.1725 7.37368 16.9565 8.90676 14.8367C10.1346 13.1374 11.5817 10.753 12.5552 9.25724L14.2036 6.7236C15.3488 4.96441 16.6739 3.00849 18.1945 1.68345C19.4348 0.601474 20.7734 0 22.121 0C24.3822 0 26.5371 1.31035 28.1855 3.76824C29.9899 6.46017 30.8661 9.8508 30.8661 13.35C30.8661 15.4302 30.4557 16.9588 29.7582 18.1663C29.0843 19.3342 27.7706 20.5009 25.5603 20.5009V17.1713C27.4529 17.1713 27.9243 15.4325 27.9243 13.4427C27.9243 10.6072 27.2629 7.45961 25.8068 5.21087C24.7734 3.61562 23.4337 2.64105 21.9594 2.64105C20.3652 2.64105 19.0832 3.84286 17.6417 5.98646C16.8751 7.12496 16.0882 8.51331 15.2053 10.0792L14.2329 11.8022C12.2793 15.2663 11.7841 16.0543 10.8084 17.3568C9.09669 19.636 7.63485 20.5009 5.71059 20.5009C3.42794 20.5009 1.98418 19.5128 1.08988 18.0227C0.358396 16.8096 0 15.2166 0 13.4008L3.3341 13.5207Z" fill="#757575"/>
<path d="M2.625 4.00463C4.15355 1.64848 6.35933 0.0012207 8.88958 0.0012207C10.3548 0.0012207 11.811 0.435368 13.3316 1.67675C14.9959 3.03459 16.7686 5.26975 18.9812 8.95546L19.7749 10.2782C21.6901 13.4688 22.7788 15.1092 23.4165 15.8837C24.2362 16.8775 24.8105 17.1737 25.5567 17.1737C27.4493 17.1737 27.9207 15.4349 27.9207 13.445L30.8614 13.3523C30.8614 15.4326 30.451 16.9611 29.7534 18.1686C29.0796 19.3365 27.7658 20.5033 25.5555 20.5033C24.1819 20.5033 22.9642 20.2048 21.6188 18.9351C20.5844 17.9606 19.3746 16.2297 18.4442 14.6728L15.6765 10.0487C14.2881 7.72765 13.014 5.99785 12.2757 5.21435C11.482 4.37207 10.4634 3.35454 8.83531 3.35454C7.51818 3.35454 6.40003 4.27823 5.4639 5.69259L2.625 4.00463Z" fill="#757575"/>
<path d="M8.83892 3.35219C7.52179 3.35219 6.40364 4.27588 5.46751 5.69024C4.1436 7.68799 3.3341 10.6626 3.3341 13.5207C3.3341 14.6987 3.593 15.6044 3.93105 16.1516L1.08875 18.0238C0.358396 16.8096 0 15.2166 0 13.4008C0 10.1007 0.905599 6.66028 2.62861 4.00341C4.15717 1.64726 6.36294 0 8.89319 0L8.83892 3.35219Z" fill="#757575"/>
<path d="M37.3449 0.648926H41.2013L47.7587 12.511L54.3172 0.648926H58.09V20.1414H54.9436V5.2018L49.1923 15.5467H46.2403L40.4902 5.2018V20.1402H37.3438V0.648926H37.3449ZM67.9476 7.91633C65.6909 7.91633 64.3331 9.61447 64.0075 11.7174H71.665C71.5067 9.55116 70.2574 7.91633 67.9476 7.91633ZM60.8882 12.9147C60.8882 8.49067 63.7475 5.27076 68.0019 5.27076C72.1873 5.27076 74.6859 8.44997 74.6859 13.1509V14.0147H64.0075C64.3862 16.3019 65.9046 17.8429 68.3512 17.8429C70.3037 17.8429 71.5236 17.2471 72.6814 16.1572L74.3524 18.2035C72.7774 19.6518 70.7752 20.4862 68.2393 20.4862C63.6333 20.4884 60.8882 17.1295 60.8882 12.9147ZM78.5005 8.19559H75.605V5.62011H78.5005V1.36007H81.5361V5.62011H85.9352V8.19559H81.5361V14.7247C81.5361 16.9542 82.2484 17.7456 84.0008 17.7456C84.8001 17.7456 85.2591 17.6767 85.9363 17.5648V20.1131C85.0929 20.3516 84.2879 20.4613 83.4163 20.4613C80.1398 20.4613 78.5016 18.6705 78.5016 15.0876L78.5005 8.19559ZM98.7165 10.701C98.1071 9.16224 96.747 8.02826 94.7481 8.02826C92.1512 8.02826 90.4881 9.87112 90.4881 12.8728C90.4881 15.7999 92.0189 17.7321 94.6238 17.7321C96.6713 17.7321 98.1331 16.5404 98.7165 15.0582V10.701ZM101.752 20.1402H98.773V18.1074C97.9398 19.3047 96.4248 20.4884 93.9703 20.4884C90.0223 20.4884 87.3846 17.1837 87.3846 12.8728C87.3846 8.5212 90.0867 5.27076 94.1376 5.27076C96.141 5.27076 97.7114 6.07122 98.773 7.48558V5.62011H101.752V20.1402Z" fill="#757575"/>
</svg>
