<svg width="81" height="18" viewBox="0 0 81 18" fill="none" xmlns="http://www.w3.org/2000/svg">
<g clip-path="url(#clip0_70_836)">
<path d="M9.08446 17.2363C9.08446 16.9733 9.08129 16.7103 9.08129 16.4473C9.08129 14.0388 9.08129 11.6303 9.07812 9.2219C9.07812 9.0888 9.10031 9.04443 9.24925 9.04443C11.8732 9.05077 14.4971 9.05077 17.1179 9.04443C17.2637 9.04443 17.289 9.0888 17.289 9.2219C17.2859 11.83 17.2859 14.4381 17.2859 17.0462C17.2859 17.1096 17.289 17.173 17.289 17.2363C14.5542 17.2363 11.8193 17.2363 9.08446 17.2363Z" fill="#757575"/>
<path d="M0.0204886 17.2363C0.0173195 17.1793 0.0109815 17.1223 0.0109815 17.062C0.0109815 14.4539 0.0109815 11.849 0.0078125 9.24091C0.0078125 9.07612 0.0553477 9.04443 0.210629 9.04443C2.81239 9.05077 5.41415 9.0476 8.01274 9.0476C8.21556 9.0476 8.21556 9.0476 8.21556 9.25676C8.21556 11.849 8.21556 14.4413 8.21556 17.0304C8.21556 17.1001 8.2219 17.1666 8.22507 17.2363C5.49021 17.2363 2.75535 17.2363 0.0204886 17.2363Z" fill="#757575"/>
<path d="M8.21092 4.11338C8.21092 5.41584 8.20775 6.71514 8.21409 8.0176C8.21409 8.15387 8.18556 8.19507 8.04296 8.1919C5.41901 8.18556 2.79824 8.18556 0.174296 8.1919C0.0348592 8.1919 0 8.15704 0 8.0176C0.00316901 5.40317 0.00316901 2.78556 0 0.164789C0 0.0348592 0.0285211 0 0.164789 0C2.7919 0.00316901 5.41901 0.00316901 8.0493 0C8.17923 0 8.21725 0.0285211 8.21409 0.16162C8.20775 1.47993 8.21092 2.79824 8.21092 4.11338Z" fill="#757575"/>
<path d="M13.1852 0.00316901C14.494 0.00316901 15.8028 0.00633803 17.1116 0C17.2415 0 17.289 0.0190141 17.289 0.167958C17.2827 2.78556 17.2827 5.40317 17.289 8.02394C17.289 8.16655 17.251 8.19507 17.1147 8.19507C14.4908 8.1919 11.87 8.1919 9.24608 8.19507C9.11932 8.19507 9.07812 8.16972 9.07812 8.03345C9.08129 5.40951 9.08129 2.78556 9.07812 0.16162C9.07812 0.0285211 9.11615 0 9.24291 0C10.5549 0.00633803 11.87 0.00316901 13.1852 0.00316901Z" fill="#757575"/>
<path d="M24.1435 5.73601C24.1435 5.79622 24.1435 5.85643 24.1435 5.91348C24.1435 8.47404 24.1403 11.0346 24.1466 13.5952C24.1466 13.76 24.0991 13.7948 23.947 13.7885C23.5033 13.779 23.0597 13.7821 22.616 13.7885C22.5019 13.7916 22.4766 13.7568 22.4766 13.6459C22.4797 10.2962 22.4797 6.94341 22.4766 3.59376C22.4766 3.4765 22.5019 3.44165 22.6223 3.44481C23.3829 3.45115 24.1435 3.45115 24.904 3.44481C25.0371 3.44481 25.0942 3.48284 25.1417 3.60643C26.0861 6.05291 27.0399 8.49939 27.9875 10.9459C27.9906 10.9554 27.9938 10.9681 27.997 10.9744C28.0223 11.0124 28.016 11.0885 28.0667 11.0885C28.1333 11.0916 28.1301 11.0156 28.1459 10.9681C29.1568 8.50573 30.1678 6.04658 31.1755 3.58108C31.2167 3.47967 31.2611 3.43848 31.3783 3.43848C32.1009 3.44481 32.8234 3.44481 33.5491 3.43848C33.66 3.43848 33.6885 3.467 33.6885 3.57791C33.6854 6.9339 33.6854 10.2899 33.6885 13.6459C33.6885 13.7631 33.6473 13.7821 33.5428 13.7821C33.0421 13.7758 32.5414 13.7726 32.0375 13.7821C31.898 13.7853 31.879 13.7378 31.879 13.6142C31.8822 11.0314 31.8822 8.45186 31.8822 5.86911C31.8822 5.81524 31.8822 5.75819 31.8822 5.70432C31.8727 5.70115 31.8632 5.70115 31.8537 5.69798C31.8283 5.75186 31.803 5.8089 31.784 5.86277C30.7604 8.44552 29.7368 11.0251 28.7195 13.6078C28.6656 13.7473 28.5991 13.7853 28.4565 13.7821C28.1681 13.7695 27.8766 13.7726 27.585 13.7821C27.4773 13.7853 27.4266 13.7504 27.3885 13.6522C26.7072 11.96 26.0195 10.2582 25.3318 8.55643C24.9674 7.6596 24.6061 6.76277 24.2417 5.86594C24.2227 5.81841 24.2005 5.77404 24.1783 5.72967C24.1656 5.73284 24.1561 5.73601 24.1435 5.73601Z" fill="#757575"/>
<path d="M76.8003 4.30662C76.5848 4.23056 76.3947 4.15767 76.1887 4.13232C75.4123 4.04042 74.9052 4.45556 74.8704 5.23514C74.8545 5.56155 74.8672 5.88796 74.8577 6.21436C74.8545 6.32211 74.8989 6.34429 74.9971 6.34429C75.7767 6.34112 76.5595 6.34112 77.339 6.34429C77.4468 6.34429 77.469 6.30626 77.469 6.20803C77.4658 5.73901 77.4721 5.27 77.4658 4.80098C77.4658 4.69641 77.5007 4.65521 77.5957 4.62669C78.0964 4.48091 78.5971 4.33197 79.0915 4.17669C79.2151 4.13866 79.2278 4.17669 79.2278 4.2876C79.2246 4.91824 79.2278 5.55204 79.2246 6.18584C79.2246 6.30626 79.2531 6.35063 79.3831 6.34746C79.8743 6.34112 80.3655 6.34746 80.8567 6.34112C80.9739 6.34112 81.0119 6.37281 81.0088 6.49324C81.0024 6.87669 81.0024 7.26331 81.0088 7.64676C81.0119 7.75767 80.9771 7.78619 80.8662 7.78619C80.3686 7.77986 79.8743 7.78619 79.3767 7.77986C79.2595 7.77986 79.2246 7.80521 79.2246 7.92563C79.2309 9.02528 79.2278 10.1281 79.2278 11.2277C79.2278 11.402 79.2373 11.5732 79.2721 11.7475C79.3704 12.2292 79.6429 12.4637 80.1341 12.4922C80.3908 12.508 80.6221 12.4288 80.8503 12.3306C80.8883 12.3147 80.9169 12.2767 80.9771 12.2862C80.9771 12.7299 80.9771 13.1767 80.9771 13.6235C80.9771 13.7281 80.8947 13.7376 80.8281 13.7566C80.4066 13.8929 79.9757 13.9404 79.5352 13.9309C79.2405 13.9246 78.9457 13.8865 78.6669 13.7851C77.9507 13.5284 77.6211 12.9707 77.5007 12.2608C77.3961 11.6556 77.4531 11.0408 77.4531 10.4323C77.4531 9.59887 77.4595 8.76859 77.4721 7.93514C77.4721 7.82739 77.4341 7.80521 77.3359 7.80521C76.5658 7.80838 75.7957 7.81155 75.0257 7.80521C74.8957 7.80521 74.8609 7.8369 74.8609 7.97C74.864 9.84605 74.8609 11.7221 74.8672 13.5982C74.8672 13.763 74.8228 13.7978 74.6676 13.7946C74.1922 13.7851 73.7169 13.7851 73.2415 13.7946C73.1116 13.7978 73.0735 13.7661 73.0735 13.6299C73.0767 11.7601 73.0767 9.89042 73.0767 8.01753C73.0767 7.77669 73.1052 7.81155 72.8644 7.80838C72.557 7.80521 72.2528 7.80521 71.9454 7.80838C71.8567 7.80838 71.8281 7.78303 71.8281 7.69112C71.8313 7.28549 71.8313 6.87986 71.8281 6.47422C71.8281 6.38232 71.8598 6.36014 71.9485 6.36014C72.2813 6.36331 72.614 6.35697 72.9468 6.36331C73.0514 6.36648 73.0799 6.33162 73.0799 6.23021C73.0799 5.84676 73.0672 5.46014 73.0926 5.07669C73.1781 3.76788 74.2429 2.72845 75.5549 2.69042C75.9193 2.68091 76.2838 2.67141 76.6419 2.74746C76.7655 2.77281 76.8098 2.82669 76.8066 2.95979C76.794 3.40345 76.8003 3.84711 76.8003 4.30662Z" fill="#757575"/>
<path d="M57.4798 9.9824C57.4861 10.6732 57.3847 11.3039 57.1153 11.8997C56.659 12.9074 55.8953 13.5634 54.821 13.8359C54.0002 14.0451 53.1667 14.0419 52.3491 13.8137C51.2431 13.5032 50.4858 12.7997 50.1213 11.7159C49.7347 10.5592 49.7727 9.3993 50.2576 8.27747C50.7615 7.10494 51.6963 6.47113 52.9417 6.26832C53.6262 6.1574 54.3108 6.16691 54.9826 6.34754C56.2724 6.69613 57.0203 7.57395 57.3498 8.83839C57.4481 9.22501 57.4893 9.62113 57.4798 9.9824ZM51.709 10.1092C51.709 10.2993 51.7185 10.4863 51.7375 10.6764C51.8516 11.6905 52.4442 12.4321 53.5439 12.5113C54.5231 12.581 55.2805 12.2007 55.572 11.1486C55.7527 10.499 55.7495 9.83663 55.6101 9.17747C55.515 8.73064 55.3375 8.32501 54.9667 8.03029C53.9463 7.21585 52.3808 7.65951 51.896 8.8986C51.7502 9.28839 51.7058 9.69402 51.709 10.1092Z" fill="#757575"/>
<path d="M71.6371 9.96034C71.6371 10.686 71.5356 11.3135 71.2694 11.9029C70.8289 12.8758 70.0969 13.5287 69.067 13.8139C68.2018 14.0547 67.324 14.0515 66.4589 13.8044C65.3941 13.497 64.6716 12.8061 64.304 11.773C63.8888 10.6068 63.9205 9.43112 64.4085 8.29027C64.9092 7.11774 65.8409 6.4776 67.0832 6.26844C67.7709 6.15436 68.4617 6.16386 69.1399 6.34767C70.436 6.69943 71.1807 7.58358 71.5103 8.85436C71.6054 9.24098 71.6434 9.64027 71.6371 9.96034ZM69.8624 10.0871C69.8656 9.7702 69.837 9.45647 69.7642 9.14908C69.6152 8.53112 69.3205 8.01457 68.6899 7.78323C67.7297 7.43464 66.5159 7.64696 66.0342 8.99696C65.8346 9.55471 65.8346 10.1315 65.9011 10.7114C66.0216 11.7191 66.63 12.4322 67.6916 12.5114C68.6899 12.5875 69.4441 12.1882 69.7388 11.1329C69.8339 10.7906 69.8592 10.4389 69.8624 10.0871Z" fill="#757575"/>
<path d="M62.8603 8.13798C62.5846 7.98904 62.3342 7.8496 62.0617 7.74502C61.6085 7.57389 61.1458 7.51051 60.6673 7.6246C60.3567 7.69749 60.1634 7.89713 60.1159 8.20453C60.0652 8.51826 60.1444 8.80347 60.4265 8.99361C60.7085 9.18375 61.0254 9.30101 61.336 9.43094C61.7955 9.62108 62.2486 9.82389 62.6257 10.1535C63.5448 10.9616 63.5131 12.4478 62.575 13.2528C62.0553 13.6996 61.4374 13.8834 60.775 13.9373C59.9638 14.0007 59.1779 13.8834 58.4141 13.5982C58.3571 13.576 58.2969 13.5665 58.2969 13.4778C58.3 12.9359 58.3 12.3971 58.3 11.8521C58.3761 11.8552 58.4141 11.9028 58.4617 11.9313C59.0099 12.2767 59.6025 12.4985 60.2522 12.5397C60.4962 12.5556 60.737 12.5429 60.9747 12.4732C61.4279 12.3433 61.6148 11.9313 61.4184 11.5035C61.3391 11.3323 61.2155 11.1992 61.0539 11.0978C60.7497 10.9045 60.4201 10.7683 60.0905 10.6288C59.7103 10.4672 59.3458 10.2834 59.0257 10.0204C58.5884 9.65911 58.3761 9.19009 58.3317 8.63551C58.2176 7.21897 59.2729 6.47108 60.2268 6.23974C61.0983 6.03058 61.9444 6.15735 62.781 6.42037C62.8571 6.44573 62.8603 6.48692 62.8603 6.5503C62.8571 7.06685 62.8603 7.58657 62.8603 8.13798Z" fill="#757575"/>
<path d="M44.1401 11.8837C44.1401 11.928 44.1401 11.9787 44.1401 12.0294C44.1401 12.397 44.1401 12.7678 44.1401 13.1354C44.1401 13.5062 44.1433 13.5125 43.7883 13.652C43.1355 13.9118 42.4478 13.9689 41.7538 13.9467C40.0489 13.8897 38.7084 12.7963 38.3978 11.1199C38.1316 9.67487 38.42 8.34071 39.469 7.24423C39.9887 6.69916 40.6478 6.40761 41.3831 6.28085C42.2482 6.13191 43.0943 6.17628 43.9151 6.51219C44.0577 6.56923 44.1243 6.63578 44.1211 6.80691C44.1052 7.28543 44.1147 7.76395 44.1147 8.27099C43.9848 8.19177 43.8771 8.12205 43.7662 8.0555C43.1387 7.68789 42.4732 7.55797 41.7602 7.74494C41.0883 7.91923 40.6035 8.33437 40.35 8.97452C40.0584 9.70022 40.0457 10.4513 40.3151 11.1833C40.6066 11.9756 41.2214 12.3749 42.0422 12.4985C42.7711 12.6062 43.3859 12.3337 43.9753 11.9629C44.0197 11.9344 44.064 11.9059 44.1084 11.8773C44.1116 11.8742 44.1179 11.8773 44.1401 11.8837Z" fill="#757575"/>
<path d="M49.779 8.10958C49.5097 7.93529 49.234 7.86874 48.9488 7.84656C48.2167 7.78318 47.6748 8.12543 47.3991 8.80994C47.228 9.23141 47.19 9.67825 47.19 10.1251C47.1868 11.2881 47.1868 12.4543 47.1931 13.6173C47.1931 13.7504 47.1678 13.7948 47.022 13.7916C46.5435 13.7821 46.0618 13.7853 45.5833 13.7885C45.4819 13.7885 45.4375 13.7726 45.4375 13.6554C45.4407 11.2691 45.4407 8.88282 45.4375 6.49972C45.4375 6.38564 45.4724 6.36029 45.5801 6.36029C46.0713 6.36663 46.5625 6.36663 47.0505 6.36029C47.1646 6.36029 47.1931 6.39515 47.19 6.50289C47.1836 6.83247 47.1868 7.16522 47.1868 7.49796C47.2565 7.50747 47.2502 7.44726 47.266 7.41557C47.7414 6.40148 48.6414 6.11944 49.6301 6.29691C49.7379 6.31592 49.7854 6.36029 49.7822 6.48388C49.7727 7.01944 49.779 7.55184 49.779 8.10958Z" fill="#757575"/>
<path d="M35.3704 10.0712C35.3704 8.89236 35.3735 7.71032 35.3672 6.53144C35.3672 6.38884 35.4052 6.35715 35.5415 6.36032C36.0168 6.36982 36.4922 6.36982 36.9644 6.36032C37.0943 6.35715 37.1197 6.40151 37.1197 6.52194C37.1165 8.89236 37.1165 11.2628 37.1197 13.6332C37.1197 13.7473 37.1006 13.798 36.9675 13.7948C36.4827 13.7853 35.9978 13.7853 35.513 13.7948C35.3925 13.798 35.3672 13.7631 35.3672 13.6459C35.3704 12.4543 35.3704 11.2628 35.3704 10.0712Z" fill="#757575"/>
<path d="M37.3093 4.26226C37.303 4.82951 36.8308 5.25416 36.2129 5.24465C35.6266 5.23831 35.1734 4.78197 35.1798 4.21155C35.1861 3.6538 35.6614 3.21965 36.2604 3.22916C36.8688 3.24183 37.3157 3.68233 37.3093 4.26226Z" fill="#757575"/>
</g>
<defs>
<clipPath id="clip0_70_836">
<rect width="81" height="17.2363" fill="white"/>
</clipPath>
</defs>
</svg>
