<svg width="49" height="21" viewBox="0 0 49 21" fill="none" xmlns="http://www.w3.org/2000/svg">
<path fill-rule="evenodd" clip-rule="evenodd" d="M48.5748 10.4436C48.5748 6.9894 46.9016 4.26382 43.7038 4.26382C40.4925 4.26382 38.5495 6.9894 38.5495 10.4166C38.5495 14.478 40.8433 16.5289 44.1356 16.5289C45.7413 16.5289 46.9556 16.1646 47.8731 15.6519V12.9533C46.9556 13.4121 45.9032 13.6954 44.5674 13.6954C43.2585 13.6954 42.0981 13.2366 41.9497 11.6445H48.5478C48.5478 11.4691 48.5748 10.7674 48.5748 10.4436ZM41.9092 9.16177C41.9092 7.63706 42.8403 7.00289 43.6903 7.00289C44.5134 7.00289 45.3904 7.63706 45.3904 9.16177H41.9092Z" fill="#757575"/>
<path fill-rule="evenodd" clip-rule="evenodd" d="M33.3411 4.26381C32.0188 4.26381 31.1687 4.88448 30.6965 5.31626L30.5211 4.47969H27.5526V20.2125L30.9259 19.4974L30.9394 15.6789C31.4251 16.0297 32.1402 16.5289 33.3276 16.5289C35.7429 16.5289 37.9422 14.5859 37.9422 10.3087C37.9287 6.3957 35.7024 4.26381 33.3411 4.26381ZM32.5315 13.5605C31.7354 13.5605 31.2632 13.2771 30.9394 12.9263L30.9259 7.9204C31.2767 7.52911 31.7624 7.25925 32.5315 7.25925C33.7594 7.25925 34.6094 8.63553 34.6094 10.4031C34.6094 12.2112 33.7729 13.5605 32.5315 13.5605Z" fill="#757575"/>
<path fill-rule="evenodd" clip-rule="evenodd" d="M22.911 3.46769L26.2977 2.73907V0L22.911 0.715127V3.46769Z" fill="#757575"/>
<path d="M26.2977 4.49317H22.911V16.2995H26.2977V4.49317Z" fill="#757575"/>
<path fill-rule="evenodd" clip-rule="evenodd" d="M19.2812 5.49164L19.0653 4.49316H16.1509V16.2995H19.5241V8.29818C20.3202 7.25922 21.6695 7.44813 22.0878 7.59655V4.49316C21.656 4.33125 20.0773 4.0344 19.2812 5.49164Z" fill="#757575"/>
<path fill-rule="evenodd" clip-rule="evenodd" d="M12.5348 1.56517L9.24255 2.26681L9.22906 13.0747C9.22906 15.0716 10.7268 16.5424 12.7237 16.5424C13.8302 16.5424 14.6397 16.34 15.085 16.0971V13.358C14.6532 13.5334 12.5213 14.1541 12.5213 12.1572V7.36715H15.085V4.49315H12.5213L12.5348 1.56517Z" fill="#757575"/>
<path fill-rule="evenodd" clip-rule="evenodd" d="M3.41372 7.92041C3.41372 7.39419 3.8455 7.19179 4.56063 7.19179C5.58609 7.19179 6.88142 7.50213 7.90688 8.05534V4.88449C6.78697 4.43922 5.68054 4.26382 4.56063 4.26382C1.82155 4.26382 0 5.69407 0 8.08233C0 11.8064 5.12733 11.2127 5.12733 12.8184C5.12733 13.439 4.58761 13.6414 3.832 13.6414C2.71209 13.6414 1.28183 13.1827 0.148423 12.562V15.7733C1.40327 16.313 2.67161 16.5424 3.832 16.5424C6.63854 16.5424 8.56804 15.1526 8.56804 12.7374C8.55455 8.7165 3.41372 9.43162 3.41372 7.92041Z" fill="#757575"/>
</svg>
